<?xml version="1.0" standalone="no"?>
<!DOCTYPE svg PUBLIC "-//W3C//DTD SVG 1.1//EN" "http://www.w3.org/Graphics/SVG/1.1/DTD/svg11.dtd" >
<svg>
<metadata>
Created by FontForge 20120731 at Mon Jul  1 12:06:51 2019
 By www
Copyright 2015 Indian Type Foundry. All rights reserved.
</metadata>
<defs>
<font id="VolteW03-Semibold" horiz-adv-x="578" >
  <font-face 
    font-family="VolteW03-Semibold"
    font-weight="600"
    font-stretch="normal"
    units-per-em="1000"
    panose-1="1 0 0 0 0 0 0 0 0 0"
    ascent="800"
    descent="-200"
    x-height="479"
    cap-height="641"
    bbox="-228 -210 1468 916"
    underline-thickness="50"
    underline-position="-75"
    unicode-range="U+0020-FB02"
  />
<missing-glyph horiz-adv-x="597" 
d="M521 0h-444v641h444v-641zM191 533v-425h215v425h-215z" />
    <glyph glyph-name="uniFB01" unicode="fi" horiz-adv-x="606" 
d="M542 636l-62 -95q-23 21 -59.5 33.5t-73.5 12.5q-56 0 -87 -25.5t-31 -76.5v-6h306v-479h-123v371h-183v-371h-122v371h-78v108h78v9q0 99 62 156.5t171 57.5q126 0 202 -66z" />
    <glyph glyph-name="uniFB02" unicode="fl" horiz-adv-x="606" 
d="M29 371v108h78v10q0 98 57 155.5t147 57.5q62 0 113 -19h111v-683h-123v563q-15 10 -39 17t-49 7q-41 0 -68 -26t-27 -71v-11h104v-108h-104v-371h-122v371h-78z" />
    <glyph glyph-name=".notdef" horiz-adv-x="597" 
d="M521 0h-444v641h444v-641zM191 533v-425h215v425h-215z" />
    <glyph glyph-name=".null" horiz-adv-x="0" 
 />
    <glyph glyph-name="nonmarkingreturn" horiz-adv-x="333" 
 />
    <glyph glyph-name="space" unicode=" " horiz-adv-x="215" 
 />
    <glyph glyph-name="exclam" unicode="!" horiz-adv-x="295" 
d="M197 230h-98l-17 411h131zM227 67q0 -32 -23.5 -55.5t-56.5 -23.5q-32 0 -55.5 23.5t-23.5 55.5q0 33 23.5 56.5t55.5 23.5t56 -24t24 -56z" />
    <glyph glyph-name="quotedbl" unicode="&#x22;" horiz-adv-x="365" 
d="M160 688l-14 -219h-89l-11 219h114zM319 688l-14 -219h-89l-11 219h114z" />
    <glyph glyph-name="numbersign" unicode="#" horiz-adv-x="613" 
d="M304 0l34 170h-125l-34 -170h-102l34 170h-100l18 89h101l26 129h-101l18 89h101l33 164h102l-33 -164h125l33 164h102l-33 -164h99l-17 -89h-100l-26 -129h100l-18 -89h-101l-34 -170h-102zM357 259l26 129h-125l-26 -129h125z" />
    <glyph glyph-name="dollar" unicode="$" horiz-adv-x="562" 
d="M521 537l-86 -85q-22 32 -63 53.5t-87 21.5q-44 0 -69.5 -18t-25.5 -46q0 -19 18 -37t108.5 -45.5t125.5 -48t52 -41.5t25 -44.5t8 -51.5q0 -74 -49.5 -126t-132.5 -68v-91h-104v88q-36 3 -77 15.5t-75.5 38.5t-56.5 59l89 83q29 -39 71 -59.5t92 -20.5q51 0 80 20t29 54
q0 25 -23 44.5t-110 46t-121.5 47t-50.5 40t-24 43t-8 50.5q0 71 51 120.5t134 62.5v89h104v-90q57 -9 103 -37t73 -67z" />
    <glyph glyph-name="percent" unicode="%" horiz-adv-x="662" 
d="M150 314q-59 0 -97.5 47t-38.5 119q0 73 37.5 121t94.5 48q29 0 60.5 -16t54 -57.5t21.5 -94.5q0 -26 -6 -54.5t-22 -53.5t-42.5 -42t-61.5 -17zM148 388q25 0 39.5 25t14.5 67q0 43 -14.5 68.5t-39.5 25.5q-24 0 -39 -26t-15 -67q0 -31 8 -54t21 -31t25 -8zM68 0
l431 641h95l-430 -641h-96zM516 -7q-59 0 -97.5 47t-38.5 119q0 73 37.5 121t94.5 48q29 0 60.5 -16t54 -57.5t21.5 -94.5q0 -26 -6 -54.5t-22 -53.5t-42.5 -42t-61.5 -17zM514 67q25 0 39.5 25t14.5 67q0 43 -14.5 68.5t-39.5 25.5q-24 0 -39 -26t-15 -67q0 -31 8 -54
t21 -31t25 -8z" />
    <glyph glyph-name="ampersand" unicode="&#x26;" horiz-adv-x="655" 
d="M302 655q56 0 100 -24.5t69 -62.5l-84 -82q-28 54 -87 54q-32 0 -52 -19t-20 -47q0 -41 45 -80l183 -158l69 87l90 -68l-73 -93l97 -84l-72 -92l-100 87q-88 -87 -203 -87q-89 0 -150 59t-61 147q0 104 88 175q-17 23 -26.5 52t-9.5 58q0 76 56 127t141 51zM272 101
q62 0 111 46l-164 143q-20 -17 -32 -40.5t-12 -48.5q0 -42 28.5 -71t68.5 -29z" />
    <glyph glyph-name="quotesingle" unicode="'" horiz-adv-x="206" 
d="M160 688l-14 -219h-89l-11 219h114z" />
    <glyph glyph-name="parenleft" unicode="(" horiz-adv-x="342" 
d="M51 274q0 124 52.5 233t148.5 199l77 -69q-73 -70 -114.5 -161t-41.5 -202t41.5 -202t114.5 -161l-77 -69q-96 90 -148.5 199t-52.5 233z" />
    <glyph glyph-name="parenright" unicode=")" horiz-adv-x="342" 
d="M291 274q0 -124 -52.5 -233t-148.5 -199l-77 69q73 70 114.5 161t41.5 202t-41.5 202t-114.5 161l77 69q96 -90 148.5 -199t52.5 -233z" />
    <glyph glyph-name="asterisk" unicode="*" horiz-adv-x="423" 
d="M268 374l-56 91l-56 -91l-76 55l69 81l-103 24l29 89l98 -41l-8 106h93l-9 -106l99 41l29 -89l-103 -24l69 -81z" />
    <glyph glyph-name="plus" unicode="+" horiz-adv-x="521" 
d="M318 548v-171h158v-111h-158v-171h-115v171h-158v111h158v171h115z" />
    <glyph glyph-name="comma" unicode="," horiz-adv-x="229" 
d="M183 139l-84 -255h-103l57 255h130z" />
    <glyph glyph-name="hyphen" unicode="-" horiz-adv-x="326" 
d="M40 298h246v-104h-246v104z" />
    <glyph glyph-name="period" unicode="." horiz-adv-x="229" 
d="M114 -12q-32 0 -55.5 23.5t-23.5 55.5q0 33 23.5 56.5t55.5 23.5t56 -24t24 -56t-23.5 -55.5t-56.5 -23.5z" />
    <glyph glyph-name="slash" unicode="/" horiz-adv-x="429" 
d="M16 0l272 641h125l-272 -641h-125z" />
    <glyph glyph-name="zero" unicode="0" horiz-adv-x="597" 
d="M301 -14q-53 0 -100.5 25t-81.5 70.5t-53 107t-19 131.5t18.5 132t52 107.5t80 70.5t98.5 25q54 0 101.5 -25t81.5 -70.5t53 -107t18 -131.5q1 -70 -17.5 -132t-52 -107.5t-80 -70.5t-99.5 -25zM299 101q57 0 93 61t36 158q0 98 -36.5 159t-95.5 61q-56 0 -91.5 -61
t-35.5 -158q0 -48 12 -99t43.5 -86t74.5 -35z" />
    <glyph glyph-name="one" unicode="1" horiz-adv-x="441" 
d="M335 0h-122v496l-102 -99l-73 81l172 163h125v-641z" />
    <glyph glyph-name="two" unicode="2" horiz-adv-x="509" 
d="M29 0v93l241 232q35 33 51.5 63t16.5 62q0 39 -27.5 64.5t-70.5 25.5q-40 0 -72.5 -24.5t-54.5 -68.5l-95 63q22 45 59 81t81.5 50t87.5 14q36 0 73.5 -10.5t72.5 -39t52 -70t17 -82.5q0 -50 -25 -97t-80 -99l-160 -149h269v-108h-436z" />
    <glyph glyph-name="three" unicode="3" horiz-adv-x="512" 
d="M232 -14q-73 0 -129.5 29.5t-89.5 79.5l89 80q26 -38 59 -56t76 -18q55 0 84 28t29 71q0 49 -33.5 76t-98.5 27h-69v70l158 160h-255v108h403v-94l-160 -158q87 -15 132.5 -65t45.5 -125q0 -21 -5 -48t-19.5 -54.5t-41.5 -52.5t-72.5 -41.5t-102.5 -16.5z" />
    <glyph glyph-name="four" unicode="4" horiz-adv-x="560" 
d="M331 0v123h-303v107l312 411h110v-411h91v-107h-91v-123h-119zM331 230v251l-190 -251h190z" />
    <glyph glyph-name="five" unicode="5" horiz-adv-x="539" 
d="M252 101q26 0 53.5 10t45.5 36t18 59t-17 59.5t-45 37t-54 10.5q-29 0 -58.5 -7t-64.5 -28l-56 39l52 324h329v-108h-230l-22 -130q5 2 25 8t50 6q49 0 89 -16t68 -44.5t42.5 -68t14.5 -84.5q0 -34 -11 -71t-42 -73.5t-81 -55t-104 -18.5q-73 0 -129 29t-90 80l89 80
q51 -74 128 -74z" />
    <glyph glyph-name="six" unicode="6" horiz-adv-x="562" 
d="M285 -14q-50 0 -94 17.5t-76 49.5t-50 74t-18 89q0 51 20.5 100.5t82.5 140.5l130 184h139l-145 -212l12 1q51 0 95 -17t75 -47t48 -69t17 -81q0 -47 -17 -89.5t-48.5 -74t-75.5 -49t-95 -17.5zM285 329q-35 0 -64 -19t-40.5 -45.5t-11.5 -48.5t11.5 -49.5t40.5 -46.5
t64 -19q22 0 48.5 11t45.5 40t19 64q0 22 -11 48.5t-39 45.5t-63 19z" />
    <glyph glyph-name="seven" unicode="7" horiz-adv-x="460" 
d="M197 0h-131l241 533h-286v108h415v-96z" />
    <glyph glyph-name="eight" unicode="8" horiz-adv-x="537" 
d="M374 193q0 20 -10 44t-36.5 41t-58.5 17q-21 0 -46 -10t-43 -35.5t-18 -56.5q0 -20 10.5 -44.5t37 -41.5t59.5 -17q21 0 45.5 10t42 36t17.5 57zM353 472q0 33 -24.5 56.5t-59.5 23.5t-60 -23.5t-25 -56.5q0 -32 25 -55t60 -23t59.5 23t24.5 55zM267 655q54 0 103 -21.5
t75 -62.5t26 -85q0 -43 -21 -79.5t-58 -59.5q48 -25 76.5 -69t28.5 -96q0 -41 -17 -77t-48.5 -62.5t-74 -41.5t-90.5 -15t-90 14.5t-72.5 41.5t-47.5 63t-17 77q0 52 28.5 96t77.5 69q-38 23 -59.5 59.5t-21.5 79.5q0 72 57.5 120.5t144.5 48.5z" />
    <glyph glyph-name="nine" unicode="9" horiz-adv-x="562" 
d="M277 644q50 0 94 -17.5t76 -49t50 -73.5t18 -89q0 -51 -20.5 -100.5t-82.5 -140.5l-129 -185h-140l145 213l-12 -1q-38 0 -78.5 11.5t-79.5 42t-58 74.5t-19 86q0 47 17.5 89.5t49 73.5t75.5 48.5t94 17.5zM278 301q48 0 81.5 33t33.5 81t-33.5 81t-81.5 33
q-22 0 -49 -11t-46 -39.5t-19 -63.5q0 -22 11 -49t39.5 -46t63.5 -19z" />
    <glyph glyph-name="colon" unicode=":" horiz-adv-x="229" 
d="M114 -12q-32 0 -55.5 23.5t-23.5 55.5q0 33 23.5 56.5t55.5 23.5t56 -24t24 -56t-23.5 -55.5t-56.5 -23.5zM114 322q-32 0 -55.5 23.5t-23.5 55.5q0 33 23.5 56.5t55.5 23.5t56 -24t24 -56t-23.5 -55.5t-56.5 -23.5z" />
    <glyph glyph-name="semicolon" unicode=";" horiz-adv-x="229" 
d="M114 322q-32 0 -55.5 23.5t-23.5 55.5q0 33 23.5 56.5t55.5 23.5t56 -24t24 -56t-23.5 -55.5t-56.5 -23.5zM183 139l-84 -255h-103l57 255h130z" />
    <glyph glyph-name="less" unicode="&#x3c;" horiz-adv-x="521" 
d="M476 201v-120l-431 191v106l431 190v-119l-299 -124z" />
    <glyph glyph-name="equal" unicode="=" horiz-adv-x="521" 
d="M45 364v111h431v-111h-431zM45 168v111h431v-111h-431z" />
    <glyph glyph-name="greater" unicode="&#x3e;" horiz-adv-x="521" 
d="M45 201l299 124l-299 124v119l431 -190v-106l-431 -191v120z" />
    <glyph glyph-name="question" unicode="?" horiz-adv-x="484" 
d="M99 468l-80 72q22 36 57 64t74.5 39.5t71.5 11.5q35 0 71 -10.5t65 -34.5t47.5 -61t18.5 -83q0 -58 -30.5 -104.5t-104.5 -95.5l-68 -45l-57 88l73 50q33 23 49 46.5t16 53.5q0 35 -24.5 58t-61.5 23q-63 0 -117 -72zM222 -12q-32 0 -55.5 23.5t-23.5 55.5
q0 33 23.5 56.5t55.5 23.5t56 -24t24 -56t-23.5 -55.5t-56.5 -23.5z" />
    <glyph glyph-name="at" unicode="@" horiz-adv-x="854" 
d="M409 173q21 0 43.5 11.5t37.5 39.5t15 60q0 18 -7 40t-26 37t-45 15q-18 0 -40.5 -11t-38.5 -39t-16 -61q0 -39 23 -65.5t54 -26.5zM432 -114q-78 0 -150 30.5t-126.5 85t-85 126.5t-30.5 150t30.5 150t85 126.5t126.5 85t150 30.5t148.5 -28.5t123 -79t81.5 -116.5
t29 -136q0 -43 -11 -83.5t-33.5 -72t-57 -50t-77.5 -18.5q-39 0 -66.5 14.5t-38.5 31t-14 23.5q-45 -70 -129 -70q-39 0 -75 21t-55 62.5t-19 89.5q0 42 14 80t38.5 66.5t57 44t68.5 15.5q64 0 97 -41l2 30h92l-12 -209q-2 -37 11 -55t37 -18q37 0 58 39.5t21 98.5
q0 40 -14.5 85.5t-50 86.5t-79 64t-80.5 30t-66 7q-45 0 -95.5 -16t-101.5 -59t-77.5 -105.5t-26.5 -123.5q0 -60 23.5 -116t65 -98t97 -66t115.5 -24q36 0 71.5 6.5t72.5 29.5l37 -78q-72 -46 -181 -46z" />
    <glyph glyph-name="A" unicode="A" horiz-adv-x="694" 
d="M539 0l-55 144h-281l-56 -144h-131l258 641h146l258 -641h-139zM441 255l-98 254l-98 -254h196z" />
    <glyph glyph-name="B" unicode="B" horiz-adv-x="597" 
d="M77 0v641h257q33 0 69 -9t67.5 -30t53.5 -56.5t22 -82.5q0 -25 -10.5 -52.5t-34.5 -49t-51 -32.5q36 -11 64 -35.5t39 -55.5t11 -58q0 -17 -4.5 -39t-17.5 -45t-37.5 -45t-65 -36.5t-90.5 -14.5h-272zM322 530h-120v-154h121q19 0 41 7.5t37 26.5t15 43q0 33 -26.5 55
t-67.5 22zM337 273h-135v-162h134q41 0 69 23.5t28 58.5q0 34 -27.5 57t-68.5 23z" />
    <glyph glyph-name="C" unicode="C" horiz-adv-x="632" 
d="M610 567l-83 -95q-67 58 -153 58q-30 0 -63 -11t-62.5 -37t-50.5 -67.5t-21 -94.5q0 -42 15.5 -80.5t43 -67t65.5 -45t81 -16.5q41 0 80 15.5t65 42.5l83 -92q-84 -91 -237 -91q-68 0 -128.5 26t-105.5 72t-70 107.5t-25 128.5t25.5 128.5t71 108t106 72.5t126.5 26
q149 0 237 -88z" />
    <glyph glyph-name="D" unicode="D" horiz-adv-x="695" 
d="M77 0v641h213q77 0 144 -23.5t116 -67t75.5 -103.5t26.5 -128t-26.5 -127t-74.5 -102t-114 -66.5t-142 -23.5h-218zM289 523h-84v-405h85q37 0 76.5 9.5t77 36.5t56 69.5t18.5 87.5q0 91 -63 146.5t-166 55.5z" />
    <glyph glyph-name="E" unicode="E" horiz-adv-x="530" 
d="M77 0v641h415v-117h-290v-142h250v-118h-250v-146h290v-118h-415z" />
    <glyph glyph-name="F" unicode="F" horiz-adv-x="519" 
d="M77 0v641h406v-118h-281v-155h241v-118h-241v-250h-125z" />
    <glyph glyph-name="G" unicode="G" horiz-adv-x="675" 
d="M615 56q-93 -70 -242 -70q-68 0 -128.5 26t-105.5 72t-70 107.5t-25 128.5t25.5 128.5t71 108t106 72.5t126.5 26q149 0 237 -88l-83 -95q-67 58 -153 58q-30 0 -63 -11t-62.5 -37t-50.5 -67.5t-21 -94.5q0 -42 15.5 -80.5t43 -67t65.5 -45t81 -16.5q58 0 108 25v181h125
v-261z" />
    <glyph glyph-name="H" unicode="H" horiz-adv-x="709" 
d="M507 0v269h-305v-269h-125v641h125v-255h305v255h126v-641h-126z" />
    <glyph glyph-name="I" unicode="I" horiz-adv-x="278" 
d="M77 0v641h125v-641h-125z" />
    <glyph glyph-name="J" unicode="J" horiz-adv-x="466" 
d="M16 72l85 86q16 -22 38 -34.5t46 -12.5q42 0 64 26.5t22 77.5v426h125v-420q0 -72 -24 -123.5t-70 -81.5t-113 -30q-56 0 -103 24.5t-70 61.5z" />
    <glyph glyph-name="K" unicode="K" horiz-adv-x="617" 
d="M77 0v641h125v-264h61l181 264h141l-216 -315l231 -326h-152l-180 260h-66v-260h-125z" />
    <glyph glyph-name="L" unicode="L" horiz-adv-x="531" 
d="M77 0v641h125v-523h313v-118h-438z" />
    <glyph glyph-name="M" unicode="M" horiz-adv-x="832" 
d="M416 121l-214 323v-444h-125v641h143l204 -318l204 318h128v-641h-125v446z" />
    <glyph glyph-name="N" unicode="N" horiz-adv-x="709" 
d="M499 0l-299 434v-434h-125v641h135l299 -439v439h125v-641h-135z" />
    <glyph glyph-name="O" unicode="O" horiz-adv-x="751" 
d="M375 655q66 0 127 -26t107 -72.5t72 -108t26 -128.5t-26 -128.5t-72 -107.5t-107 -72t-127 -26t-127 26t-107 72t-71.5 107.5t-25.5 128.5t25.5 128.5t71.5 108t107 72.5t127 26zM375 111q30 0 63 11t67 40t51.5 72.5t17.5 85.5q0 31 -10.5 66.5t-38.5 71t-69 54
t-81 18.5q-29 0 -62.5 -11t-67 -40.5t-51 -73t-17.5 -85.5q0 -31 10.5 -66t38.5 -70.5t68.5 -54t80.5 -18.5z" />
    <glyph glyph-name="P" unicode="P" horiz-adv-x="596" 
d="M77 0v641h228q57 0 104.5 -15t81.5 -43t52.5 -67.5t18.5 -86.5q0 -96 -71 -154.5t-188 -58.5h-101v-216h-125zM315 531h-113v-205h113q24 0 51.5 9.5t45.5 34.5t18 59q0 33 -18 58t-45.5 34.5t-51.5 9.5z" />
    <glyph glyph-name="Q" unicode="Q" horiz-adv-x="751" 
d="M375 655q66 0 127 -26t107 -72.5t72 -108t26 -128.5t-25 -127t-64 -99.5t-73 -60.5l150 -82l-58 -99l-232 135l-30 -1q-66 0 -127 26t-107 72t-71.5 107.5t-25.5 128.5t25.5 128.5t71.5 108t107 72.5t127 26zM375 111q30 0 63 11t67 40t51.5 72.5t17.5 85.5
q0 31 -10.5 66.5t-38.5 71t-69 54t-81 18.5q-29 0 -62.5 -11t-67 -40.5t-51 -73t-17.5 -85.5q0 -31 10.5 -66t38.5 -70.5t68.5 -54t80.5 -18.5z" />
    <glyph glyph-name="R" unicode="R" horiz-adv-x="613" 
d="M77 0v641h228q113 0 182 -55.5t69 -146.5q0 -48 -20.5 -87.5t-52.5 -62.5t-62 -34l149 -255h-145l-131 236h-92v-236h-125zM315 531h-113v-185h113q49 0 79 26t30 67q0 19 -10 41t-36.5 36.5t-62.5 14.5z" />
    <glyph glyph-name="S" unicode="S" horiz-adv-x="562" 
d="M521 547l-86 -85q-22 32 -63 53.5t-87 21.5q-44 0 -69.5 -18t-25.5 -46q0 -20 18 -39.5t108.5 -49t125.5 -52t52 -45t25 -47.5t8 -55q0 -87 -68 -143t-177 -56q-47 0 -95 11t-89 39t-66 65l89 83q29 -39 71 -59.5t92 -20.5q51 0 80 20t29 54q0 27 -23 47.5t-99.5 45.5
t-104 38.5t-46 28t-32 31.5t-23 41t-9.5 59q0 81 66 133.5t168 52.5q36 0 80.5 -10t85.5 -36.5t65 -61.5z" />
    <glyph glyph-name="T" unicode="T" horiz-adv-x="532" 
d="M519 524h-191v-524h-125v524h-190v117h506v-117z" />
    <glyph glyph-name="U" unicode="U" horiz-adv-x="664" 
d="M70 261v380h125v-378q0 -68 38 -110t100 -42q61 0 98.5 41.5t37.5 109.5v379h125v-380q0 -60 -19 -111.5t-53.5 -88t-83.5 -56t-107 -19.5q-42 0 -87.5 13t-83.5 45.5t-58 74t-26 77.5t-6 65z" />
    <glyph glyph-name="V" unicode="V" horiz-adv-x="661" 
d="M158 641l176 -505l176 505h131l-237 -641h-147l-237 641h138z" />
    <glyph glyph-name="W" unicode="W" horiz-adv-x="1017" 
d="M860 641h131l-203 -641h-156l-126 486l-126 -486h-151l-203 641h138l141 -496l128 496h157l129 -496z" />
    <glyph glyph-name="X" unicode="X" horiz-adv-x="636" 
d="M193 641l133 -202l138 202h141l-209 -308l220 -333h-156l-148 222l-152 -222h-140l222 327l-210 314h161z" />
    <glyph glyph-name="Y" unicode="Y" horiz-adv-x="623" 
d="M249 0v213l-236 428h139l162 -296l164 296h132l-236 -428v-213h-125z" />
    <glyph glyph-name="Z" unicode="Z" horiz-adv-x="575" 
d="M40 118l326 406h-319v117h481v-117l-327 -406h334v-118h-495v118z" />
    <glyph glyph-name="bracketleft" unicode="[" horiz-adv-x="337" 
d="M84 -130v818h227v-108h-105v-602h105v-108h-227z" />
    <glyph glyph-name="backslash" unicode="\" horiz-adv-x="429" 
d="M413 0h-125l-272 641h125z" />
    <glyph glyph-name="bracketright" unicode="]" horiz-adv-x="337" 
d="M253 -130h-227v108h105v602h-105v108h227v-818z" />
    <glyph glyph-name="asciicircum" unicode="^" horiz-adv-x="521" 
d="M212 641h102l158 -320h-108l-101 214l-104 -214h-109z" />
    <glyph glyph-name="underscore" unicode="_" horiz-adv-x="443" 
d="M0 -20h443v-83h-443v83z" />
    <glyph glyph-name="grave" unicode="`" horiz-adv-x="400" 
d="M164 688l98 -156h-111l-131 156h144z" />
    <glyph glyph-name="a" unicode="a" horiz-adv-x="610" 
d="M416 0v52q-27 -31 -64 -48.5t-82 -17.5q-46 0 -88.5 18.5t-74 52.5t-49.5 81t-18 101q0 53 17 100t48 81.5t74 53.5t91 19q92 0 146 -62v48h123v-479h-123zM290 101q26 0 55 13.5t50 48.5t21 77q0 58 -36 98t-90 40q-42 0 -73 -24t-43 -55.5t-12 -58.5t12 -59t43 -56
t73 -24z" />
    <glyph glyph-name="b" unicode="b" horiz-adv-x="610" 
d="M340 493q46 0 88.5 -18.5t74 -52.5t49.5 -81t18 -101q0 -53 -17 -100t-48 -81.5t-74 -53.5t-91 -19q-92 0 -146 62v-48h-122v688h122v-261q27 31 64 48.5t82 17.5zM321 378q-41 0 -72 -24t-43 -56t-12 -59q0 -58 36.5 -98t90.5 -40q42 0 72.5 24t42.5 55.5t12 58.5
t-12 59t-42.5 56t-72.5 24z" />
    <glyph glyph-name="c" unicode="c" horiz-adv-x="495" 
d="M409 334q-46 44 -113 44q-22 0 -45 -7t-44.5 -26t-33 -48.5t-11.5 -56.5t12.5 -59t44.5 -56t76 -24q71 0 118 47l62 -90q-29 -32 -78.5 -52t-104.5 -20q-25 0 -56.5 6.5t-64 24t-62.5 48.5t-49.5 77t-19.5 97t19 97.5t53.5 81.5t80.5 55t97 20q59 0 108 -19.5t81 -52.5z
" />
    <glyph glyph-name="d" unicode="d" horiz-adv-x="610" 
d="M290 101q26 0 55 13.5t50 48.5t21 77q0 58 -36 98t-90 40q-42 0 -73 -24t-43 -55.5t-12 -58.5t12 -59t43 -56t73 -24zM416 688h123v-688h-123v52q-27 -31 -64 -48.5t-82 -17.5q-46 0 -88.5 18.5t-74 52.5t-49.5 81t-18 101q0 53 17 100t48 81.5t74 53.5t91 19
q92 0 146 -62v257z" />
    <glyph glyph-name="e" unicode="e" horiz-adv-x="556" 
d="M297 -14q-54 0 -101.5 19.5t-82.5 54.5t-54 81.5t-19 97.5q0 24 6 56t22.5 64.5t41 58.5t55.5 44t62 24.5t55 6.5q50 0 94.5 -18.5t77.5 -52t51 -78.5t18 -95q0 -28 -3 -40h-355q9 -51 46 -83t91 -32q34 0 64.5 13.5t52.5 36.5l63 -83q-28 -33 -77.5 -54t-107.5 -21z
M284 389q-44 0 -75 -28.5t-42 -74.5h231q-10 49 -40.5 76t-73.5 27z" />
    <glyph glyph-name="f" unicode="f" horiz-adv-x="390" 
d="M420 652l-59 -92q-11 11 -30 19t-36 8q-31 0 -48.5 -20.5t-17.5 -58.5v-29h125v-108h-125v-371h-122v371h-78v108h78v28q0 91 47.5 143t127.5 52q91 0 138 -50z" />
    <glyph glyph-name="g" unicode="g" horiz-adv-x="603" 
d="M137 -51q63 -47 140 -47q28 0 60 10.5t52 40.5t20 75v42q-57 -63 -146 -63q-45 0 -91 20t-77.5 60.5t-43 82t-11.5 80.5q0 50 17.5 94.5t48 77t71.5 50.5t86 18q93 0 146 -58v47h123v-446q0 -50 -14.5 -96.5t-47 -79t-79.5 -50t-107 -17.5q-65 0 -119.5 17t-89.5 47z
M286 122q32 0 59 15t45.5 44.5t18.5 68.5t-18.5 68.5t-45.5 44.5t-59 15q-38 0 -69 -21.5t-43 -51.5t-12 -55t12 -55t43 -51.5t69 -21.5z" />
    <glyph glyph-name="h" unicode="h" 
d="M194 272v-272h-122v688h122v-256q22 29 57 45t78 16q83 0 132.5 -55t49.5 -148v-290h-122v272q0 48 -26.5 77t-70.5 29q-45 0 -71.5 -29t-26.5 -77z" />
    <glyph glyph-name="i" unicode="i" horiz-adv-x="265" 
d="M194 479v-479h-122v479h122zM132 544q-29 0 -50 21t-21 50t21 50.5t50 21.5t50.5 -21.5t21.5 -50.5t-21 -50t-51 -21z" />
    <glyph glyph-name="j" unicode="j" horiz-adv-x="265" 
d="M132 687q29 0 50.5 -21.5t21.5 -50.5t-21 -50t-51 -21q-29 0 -50 21t-21 50t21 50.5t50 21.5zM194 479v-493q0 -90 -45.5 -143t-128.5 -53q-37 0 -68.5 12t-51.5 31l57 90q26 -21 57 -21q26 0 42 20t16 57v500h122z" />
    <glyph glyph-name="k" unicode="k" horiz-adv-x="562" 
d="M72 0v688h122v-382h58l123 173h149l-163 -222l177 -257h-153l-131 195h-60v-195h-122z" />
    <glyph glyph-name="l" unicode="l" horiz-adv-x="265" 
d="M72 0v688h122v-688h-122z" />
    <glyph glyph-name="m" unicode="m" horiz-adv-x="883" 
d="M194 272v-272h-122v479h122v-51q22 30 56.5 47.5t75.5 17.5q51 0 91 -23t62 -65q17 28 42.5 49.5t55 30t55.5 8.5q84 0 134 -54t50 -149v-290h-122v272q0 48 -26 77t-68 29q-43 0 -69 -29t-26 -77v-272h-122v272q0 48 -26 77t-68 29q-43 0 -69 -29t-26 -77z" />
    <glyph glyph-name="n" unicode="n" 
d="M194 272v-272h-122v479h122v-47q22 29 57 45t78 16q83 0 132.5 -55t49.5 -148v-290h-122v272q0 48 -26.5 77t-70.5 29q-45 0 -71.5 -29t-26.5 -77z" />
    <glyph glyph-name="o" unicode="o" 
d="M289 -14q-50 0 -96 19.5t-80.5 55t-53.5 82t-19 96.5q0 51 19 97.5t53.5 81.5t80.5 55t96 20t102 -22.5t87 -65.5t48 -85.5t13 -80.5q0 -24 -6.5 -55.5t-23.5 -64t-47.5 -63t-76.5 -50.5t-96 -20zM290 101q26 0 55 13.5t50 48.5t21 77q0 58 -36 98t-90 40q-42 0 -73 -24
t-43 -55.5t-12 -58.5t12 -59t43 -56t73 -24z" />
    <glyph glyph-name="p" unicode="p" horiz-adv-x="610" 
d="M72 479h122v-52q27 31 64 48.5t82 17.5q46 0 88.5 -18.5t74 -52.5t49.5 -81t18 -101q0 -53 -17 -100t-48 -81.5t-74 -53.5t-91 -19q-92 0 -146 62v-244h-122v675zM321 378q-41 0 -72 -24t-43 -56t-12 -59q0 -58 36.5 -98t90.5 -40q42 0 72.5 24t42.5 55.5t12 58.5t-12 59
t-42.5 56t-72.5 24z" />
    <glyph glyph-name="q" unicode="q" horiz-adv-x="610" 
d="M290 101q26 0 55 13.5t50 48.5t21 77q0 58 -36 98t-90 40q-42 0 -73 -24t-43 -55.5t-12 -58.5t12 -59t43 -56t73 -24zM416 479h123v-675h-123v248q-27 -31 -64 -48.5t-82 -17.5q-46 0 -88.5 18.5t-74 52.5t-49.5 81t-18 101q0 53 17 100t48 81.5t74 53.5t91 19
q92 0 146 -62v48z" />
    <glyph glyph-name="r" unicode="r" horiz-adv-x="406" 
d="M194 268v-268h-122v479h122v-52q21 31 51 48.5t66 17.5q22 0 42.5 -6.5t34.5 -17.5l-51 -116q-11 9 -29 15t-34 6q-36 0 -58 -29t-22 -77z" />
    <glyph glyph-name="s" unicode="s" horiz-adv-x="460" 
d="M166 350q0 -7 3.5 -15t13 -15.5t23.5 -13t66.5 -21t75.5 -28t36.5 -25t22 -27.5t13 -32t4.5 -37q0 -22 -8.5 -47t-31 -48t-62 -39t-97.5 -16q-65 0 -117 22t-84 59l68 78q55 -61 140 -61q34 0 52.5 13.5t18.5 36.5q0 11 -7.5 22.5t-28.5 21t-76 27t-84.5 36.5t-45 45
t-15.5 64q0 20 8 43.5t28.5 45.5t57 38t90.5 16q63 0 113 -21t77 -58l-69 -72q-45 53 -118 53q-30 0 -48.5 -12.5t-18.5 -32.5z" />
    <glyph glyph-name="t" unicode="t" horiz-adv-x="412" 
d="M22 371v108h85v124h122v-124h130v-108h-129v-203q0 -67 55 -67q15 0 31 7t25 17l55 -91q-22 -21 -56 -34.5t-75 -13.5q-74 0 -116.5 46t-42.5 132v207h-84z" />
    <glyph glyph-name="u" unicode="u" 
d="M187 479v-259q0 -24 9.5 -52t34.5 -46.5t58 -18.5t58 18.5t34.5 46.5t9.5 52v259h122v-268q0 -100 -61.5 -161.5t-162.5 -61.5t-162.5 61.5t-61.5 161.5v268h122z" />
    <glyph glyph-name="v" unicode="v" horiz-adv-x="537" 
d="M396 479h125l-173 -479h-158l-174 479h134l122 -370z" />
    <glyph glyph-name="w" unicode="w" horiz-adv-x="814" 
d="M661 479h131l-148 -479h-152l-93 325l-90 -325h-139l-147 479h130l89 -345l97 345h133l99 -347z" />
    <glyph glyph-name="x" unicode="x" horiz-adv-x="544" 
d="M376 0l-111 150l-113 -150h-136l182 242l-175 237h151l104 -141l106 141h137l-175 -233l182 -246h-152z" />
    <glyph glyph-name="y" unicode="y" horiz-adv-x="537" 
d="M144 479l139 -330l115 330h123l-196 -540q-53 -149 -178 -149q-36 0 -71.5 14.5t-59.5 36.5l55 96q16 -15 37 -23.5t40 -8.5q25 0 43 17.5t33 58.5l4 12l-219 486h135z" />
    <glyph glyph-name="z" unicode="z" horiz-adv-x="485" 
d="M41 108l237 263h-228v108h387v-108l-238 -263h245v-108h-403v108z" />
    <glyph glyph-name="braceleft" unicode="{" horiz-adv-x="344" 
d="M25 226v107q41 0 58.5 17.5t17.5 57.5v139q0 63 38.5 102t114.5 39h64v-108h-36q-59 0 -59 -59v-134q0 -24 -8 -48.5t-28.5 -40.5t-48.5 -19q28 -3 48.5 -18.5t28.5 -40.5t8 -49v-134q0 -59 59 -59h36v-108h-64q-76 0 -114.5 39t-38.5 102v139q0 40 -17.5 58t-58.5 18z
" />
    <glyph glyph-name="bar" unicode="|" horiz-adv-x="285" 
d="M202 -196h-118v884h118v-884z" />
    <glyph glyph-name="braceright" unicode="}" horiz-adv-x="344" 
d="M319 226q-41 0 -58.5 -18t-17.5 -58v-139q0 -63 -38.5 -102t-114.5 -39h-64v108h36q59 0 59 59v134q0 24 8 49t29 40.5t49 18.5q-39 5 -62.5 32t-23.5 76v134q0 59 -59 59h-36v108h64q76 0 114.5 -39t38.5 -102v-139q0 -40 17.5 -57.5t58.5 -17.5v-107z" />
    <glyph glyph-name="asciitilde" unicode="~" horiz-adv-x="521" 
d="M45 256v112q56 37 113 37q46 0 98.5 -22.5t73 -26t34.5 -3.5q29 0 60.5 7.5t51.5 23.5v-112q-21 -14 -50.5 -22t-59.5 -8q-45 0 -98 22.5t-74 26t-35 3.5q-28 0 -59.5 -8.5t-54.5 -29.5z" />
    <glyph glyph-name="uni00A0" unicode="&#xa0;" horiz-adv-x="215" 
 />
    <glyph glyph-name="exclamdown" unicode="&#xa1;" horiz-adv-x="295" 
d="M213 -161h-132l17 412h98zM227 414q0 -33 -23.5 -56.5t-55.5 -23.5t-56 24t-24 56t24 55.5t56 23.5t55.5 -23.5t23.5 -55.5z" />
    <glyph glyph-name="cent" unicode="&#xa2;" horiz-adv-x="501" 
d="M409 413q-46 44 -113 44q-22 0 -45 -7t-44.5 -25.5t-33 -48.5t-11.5 -57t12.5 -58.5t44.5 -55.5t76 -24q72 0 118 46l62 -89q-22 -26 -59 -44t-80 -25v-83h-103v87q-84 20 -138.5 88.5t-54.5 157.5t54.5 158t138.5 89v85h103v-82q44 -7 80.5 -25t62.5 -44z" />
    <glyph glyph-name="sterling" unicode="&#xa3;" horiz-adv-x="573" 
d="M64 111h24q57 0 57 79v84h-68v82h68v89q0 68 27.5 115t72 71t105.5 24q119 0 183 -85l-75 -79q-41 49 -101 49q-21 0 -42.5 -9t-34.5 -34t-13 -59v-82h184v-82h-184v-88q0 -32 -13.5 -51.5t-34.5 -23.5h311v-111h-466v111z" />
    <glyph glyph-name="currency" unicode="&#xa4;" 
d="M409 305q0 24 -12 53t-42 50.5t-66 21.5q-24 0 -52.5 -12.5t-49 -44t-20.5 -68.5q0 -23 12 -52t42.5 -50t67.5 -21q23 0 51 12.5t48.5 43.5t20.5 67zM26 486l78 79l65 -64q24 16 56.5 25.5t63.5 9.5q30 0 63 -9.5t58 -25.5l65 64l77 -79l-66 -65q14 -24 22 -55.5t8 -60.5
t-8 -60t-22 -55l66 -66l-77 -78l-66 64q-25 -16 -57.5 -25.5t-62.5 -9.5t-62.5 9.5t-57.5 24.5l-65 -63l-78 78l66 65q-14 24 -23 55.5t-9 60.5q0 30 9 61.5t23 55.5z" />
    <glyph glyph-name="yen" unicode="&#xa5;" horiz-adv-x="623" 
d="M543 164h-169v-164h-125v164h-169v82h152l-43 77h-109v81h64l-131 237h139l162 -311l164 311h132l-131 -237h64v-81h-109l-43 -77h152v-82z" />
    <glyph glyph-name="brokenbar" unicode="&#xa6;" horiz-adv-x="285" 
d="M202 688v-365h-118v365h118zM202 169v-365h-118v365h118z" />
    <glyph glyph-name="section" unicode="&#xa7;" horiz-adv-x="715" 
d="M236 258q0 -18 11.5 -31.5t35 -25.5t87.5 -30.5t89 -27.5q15 9 23.5 23.5t8.5 30.5q0 18 -11 32.5t-34.5 27.5t-86.5 31.5t-86 26.5q-16 -9 -26.5 -24.5t-10.5 -32.5zM593 547l-86 -85q-22 32 -63.5 53.5t-90.5 21.5q-41 0 -66 -16.5t-25 -44.5q0 -19 15 -33t41 -24.5
t101.5 -32.5t113.5 -43t56 -42.5t27 -45.5t9 -52q0 -73 -63 -120q37 -39 37 -94q0 -87 -68 -143t-177 -56q-47 0 -95 11t-89 39t-66 65l89 83q60 -80 167 -80q49 0 77 19.5t28 51.5q0 15 -10 29.5t-35 27.5t-115 39.5t-126 50t-51.5 46t-20.5 43.5t-5 39q0 34 18.5 64
t52.5 50q-45 42 -45 101q0 81 66 133.5t168 52.5q36 0 80.5 -10t85.5 -36.5t65 -61.5z" />
    <glyph glyph-name="dieresis" unicode="&#xa8;" horiz-adv-x="400" 
d="M108 544q-26 0 -45 19t-19 46t19 46.5t45 19.5q27 0 46.5 -19.5t19.5 -46.5q0 -26 -19.5 -45.5t-46.5 -19.5zM290 544q-26 0 -45 19t-19 46t19 46.5t45 19.5q27 0 46.5 -19.5t19.5 -46.5q0 -26 -19.5 -45.5t-46.5 -19.5z" />
    <glyph glyph-name="copyright" unicode="&#xa9;" horiz-adv-x="814" 
d="M408 686q73 0 140 -28.5t117.5 -79t79 -118t28.5 -140.5t-28.5 -140t-79 -117.5t-117.5 -79t-140 -28.5t-140.5 28.5t-118.5 79t-79.5 117.5t-28.5 140t28.5 140.5t79.5 118t118.5 79t140.5 28.5zM408 612q-58 0 -111 -22.5t-92.5 -63t-62 -93.5t-22.5 -111t22.5 -111.5
t62 -93.5t92.5 -62.5t111 -22.5t111.5 22.5t93.5 62.5t62.5 93.5t22.5 111.5t-22.5 111t-62.5 93.5t-93.5 63t-111.5 22.5zM563 470l-56 -70q-41 37 -96 37q-35 0 -62.5 -19.5t-38 -46.5t-10.5 -49t10.5 -49t38.5 -46.5t64 -19.5q56 0 98 39l50 -72q-25 -28 -65.5 -44
t-85.5 -16q-54 0 -104.5 27.5t-77.5 77.5t-27 103t27 103t76.5 77.5t101.5 27.5q99 0 157 -60z" />
    <glyph glyph-name="ordfeminine" unicode="&#xaa;" horiz-adv-x="387" 
d="M253 321v44q-31 -51 -93 -51q-35 0 -69 20t-53.5 60t-19.5 85q0 72 41 121t100 49q63 0 94 -51v43h97v-320h-97zM184 404q29 0 48.5 21.5t19.5 53.5t-19.5 53.5t-48.5 21.5t-48.5 -21.5t-19.5 -53.5t19.5 -53.5t48.5 -21.5z" />
    <glyph glyph-name="guillemotleft" unicode="&#xab;" horiz-adv-x="532" 
d="M46 248l157 197l75 -62l-111 -135l111 -135l-75 -62zM254 248l157 197l75 -62l-111 -135l111 -135l-75 -62z" />
    <glyph glyph-name="logicalnot" unicode="&#xac;" horiz-adv-x="521" 
d="M476 127h-111v139h-320v111h431v-250z" />
    <glyph glyph-name="uni00AD" unicode="&#xad;" horiz-adv-x="326" 
d="M40 298h246v-104h-246v104z" />
    <glyph glyph-name="registered" unicode="&#xae;" horiz-adv-x="587" 
d="M294 739q53 0 101 -20.5t84.5 -57.5t56.5 -85.5t20 -101.5t-20 -101.5t-56 -84.5t-84.5 -56.5t-101.5 -20.5t-101 20.5t-84.5 57t-57 84.5t-20.5 101t20.5 101.5t57 85.5t84.5 57.5t101 20.5zM295 677q-30 0 -63.5 -10.5t-67 -39t-51 -70.5t-17.5 -82t15.5 -77t42.5 -65
t64 -43.5t77 -15.5q30 0 63.5 10.5t67 38.5t51 69.5t17.5 82.5q0 40 -15.5 77.5t-43 65t-64 43.5t-76.5 16zM189 349v259h114q47 0 75.5 -20t28.5 -60q0 -28 -15.5 -46t-41.5 -26l67 -107h-81l-58 101h-16v-101h-73zM296 554h-35v-56h35q37 0 37 28t-37 28z" />
    <glyph glyph-name="macron" unicode="&#xaf;" horiz-adv-x="400" 
d="M51 659h297v-90h-297v90z" />
    <glyph glyph-name="degree" unicode="&#xb0;" horiz-adv-x="376" 
d="M187 316q-43 0 -85 22.5t-65.5 63t-23.5 82.5q0 26 8.5 54.5t32 57t60 43.5t74.5 15q28 0 58.5 -9t56 -30t43 -54.5t17.5 -76.5q0 -25 -9 -53t-34 -56.5t-61.5 -43.5t-71.5 -15zM188 394q37 0 63 25.5t26 64.5q0 20 -9.5 42t-32 35.5t-47.5 13.5q-26 0 -48.5 -14
t-31.5 -35.5t-9 -41.5q0 -30 15.5 -52t36.5 -30t37 -8z" />
    <glyph glyph-name="plusminus" unicode="&#xb1;" horiz-adv-x="521" 
d="M318 604v-157h158v-111h-158v-157h-115v157h-158v111h158v157h115zM45 0v111h431v-111h-431z" />
    <glyph glyph-name="uni00B2" unicode="&#xb2;" horiz-adv-x="296" 
d="M33 321v65l113 90q16 12 26.5 26t10.5 33q0 17 -11.5 28.5t-30.5 11.5q-39 0 -62 -46l-56 39q9 24 30 44t48 28.5t51 8.5q38 0 66 -17.5t38 -41.5t10 -43q0 -64 -68 -110l-58 -47h126v-69h-233z" />
    <glyph glyph-name="uni00B3" unicode="&#xb3;" horiz-adv-x="296" 
d="M140 314q-40 0 -70 14.5t-46 38.5l55 53q26 -32 60 -32q22 0 34.5 11t12.5 29q0 20 -15.5 31.5t-42.5 11.5h-35v36l75 64h-123v70h215v-59l-78 -64q43 -9 65 -33t22 -61q0 -47 -34.5 -78.5t-94.5 -31.5z" />
    <glyph glyph-name="acute" unicode="&#xb4;" horiz-adv-x="400" 
d="M236 688h144l-131 -156h-111z" />
    <glyph glyph-name="uni00B5" unicode="&#xb5;" horiz-adv-x="581" 
d="M190 479v-259q0 -24 9.5 -52t34.5 -46.5t58 -18.5t58 18.5t34.5 46.5t9.5 52v259h122v-268q0 -100 -61.5 -161.5t-162.5 -61.5q-56 0 -102 20v-176h-122v647h122z" />
    <glyph glyph-name="paragraph" unicode="&#xb6;" horiz-adv-x="580" 
d="M503 641v-837h-88v729h-54v-729h-119v433q-92 10 -145.5 66.5t-53.5 139.5q0 90 60.5 144t165.5 54h234z" />
    <glyph glyph-name="periodcentered" unicode="&#xb7;" horiz-adv-x="400" 
d="M199 228q-29 0 -50 21t-21 50t21 50.5t50 21.5t50.5 -21.5t21.5 -50.5t-21.5 -50t-50.5 -21z" />
    <glyph glyph-name="cedilla" unicode="&#xb8;" horiz-adv-x="400" 
d="M174 18h80l-76 -206l-99 40z" />
    <glyph glyph-name="uni00B9" unicode="&#xb9;" horiz-adv-x="296" 
d="M206 321h-88v225l-44 -44l-47 56l89 83h90v-320z" />
    <glyph glyph-name="ordmasculine" unicode="&#xba;" horiz-adv-x="369" 
d="M184 314q-24 0 -52 8.5t-53 29.5t-43 54t-18 75q0 69 49 119t117 50t117 -50t49 -119q0 -33 -13 -64t-36 -54t-53.5 -36t-63.5 -13zM184 406q29 0 48.5 21.5t19.5 52.5q0 32 -19.5 54t-48.5 22t-48.5 -22t-19.5 -54q0 -31 19.5 -52.5t48.5 -21.5z" />
    <glyph glyph-name="guillemotright" unicode="&#xbb;" horiz-adv-x="532" 
d="M486 248l-157 -197l-75 62l111 135l-111 135l75 62zM278 248l-157 -197l-75 62l111 135l-111 135l75 62z" />
    <glyph glyph-name="onequarter" unicode="&#xbc;" horiz-adv-x="662" 
d="M206 321h-88v225l-44 -44l-47 56l89 83h90v-320zM83 0l431 641h95l-430 -641h-96zM530 0v50h-153v73l151 197h80v-197h41v-73h-41v-50h-78zM530 123v117l-89 -117h89z" />
    <glyph glyph-name="onehalf" unicode="&#xbd;" horiz-adv-x="662" 
d="M206 321h-88v225l-44 -44l-47 56l89 83h90v-320zM58 0l431 641h95l-430 -641h-96zM399 0v65l113 90q16 12 26.5 26t10.5 33q0 17 -11.5 28.5t-30.5 11.5q-39 0 -62 -46l-56 39q9 24 30 44t48 28.5t51 8.5q38 0 66 -17.5t38 -41.5t10 -43q0 -64 -68 -110l-58 -47h126v-69
h-233z" />
    <glyph glyph-name="threequarters" unicode="&#xbe;" horiz-adv-x="662" 
d="M140 314q-40 0 -70 14.5t-46 38.5l55 53q26 -32 60 -32q22 0 34.5 11t12.5 29q0 20 -15.5 31.5t-42.5 11.5h-35v36l75 64h-123v70h215v-59l-78 -64q43 -9 65 -33t22 -61q0 -47 -34.5 -78.5t-94.5 -31.5zM91 0l431 641h95l-430 -641h-96zM530 0v50h-153v73l151 197h80
v-197h41v-73h-41v-50h-78zM530 123v117l-89 -117h89z" />
    <glyph glyph-name="questiondown" unicode="&#xbf;" horiz-adv-x="484" 
d="M385 13l80 -73q-22 -35 -57.5 -63.5t-74.5 -39.5t-71 -11q-59 0 -103 23t-71.5 66t-27.5 99q0 59 30.5 105t104.5 95l68 46l57 -88l-73 -50q-25 -17 -40 -34.5t-20 -34.5t-5 -31q0 -35 24.5 -58t61.5 -23q63 0 117 72zM262 493q32 0 55.5 -23.5t23.5 -55.5
q0 -33 -23.5 -56.5t-55.5 -23.5t-56 24t-24 56t24 55.5t56 23.5z" />
    <glyph glyph-name="Agrave" unicode="&#xc0;" horiz-adv-x="694" 
d="M539 0l-55 144h-281l-56 -144h-131l258 641h146l258 -641h-139zM311 850l98 -156h-111l-131 156h144zM441 255l-98 254l-98 -254h196z" />
    <glyph glyph-name="Aacute" unicode="&#xc1;" horiz-adv-x="694" 
d="M539 0l-55 144h-281l-56 -144h-131l258 641h146l258 -641h-139zM383 850h144l-131 -156h-111zM441 255l-98 254l-98 -254h196z" />
    <glyph glyph-name="Acircumflex" unicode="&#xc2;" horiz-adv-x="694" 
d="M539 0l-55 144h-281l-56 -144h-131l258 641h146l258 -641h-139zM292 850h111l118 -156h-116l-58 85l-58 -85h-116zM441 255l-98 254l-98 -254h196z" />
    <glyph glyph-name="Atilde" unicode="&#xc3;" horiz-adv-x="694" 
d="M539 0l-55 144h-281l-56 -144h-131l258 641h146l258 -641h-139zM425 702q-30 0 -73 23t-66 23q-31 0 -60 -49l-60 49q36 88 103 88q30 0 72.5 -23t65.5 -23q36 0 61 49l60 -50q-36 -87 -103 -87zM441 255l-98 254l-98 -254h196z" />
    <glyph glyph-name="Adieresis" unicode="&#xc4;" horiz-adv-x="694" 
d="M539 0l-55 144h-281l-56 -144h-131l258 641h146l258 -641h-139zM255 706q-26 0 -45 19t-19 46t19 46.5t45 19.5q27 0 46.5 -19.5t19.5 -46.5q0 -26 -19.5 -45.5t-46.5 -19.5zM437 706q-26 0 -45 19t-19 46t19 46.5t45 19.5q27 0 46.5 -19.5t19.5 -46.5q0 -26 -19.5 -45.5
t-46.5 -19.5zM441 255l-98 254l-98 -254h196z" />
    <glyph glyph-name="Aring" unicode="&#xc5;" horiz-adv-x="694" 
d="M539 0l-55 144h-281l-56 -144h-131l258 641h146l258 -641h-139zM347 684q-50 0 -85 34t-35 82t35 82t85 34t85 -34t35 -82t-35 -82t-85 -34zM348 747q21 0 36.5 15.5t15.5 37.5t-15.5 37.5t-36.5 15.5t-36.5 -15.5t-15.5 -37.5t15.5 -37.5t36.5 -15.5zM441 255l-98 254
l-98 -254h196z" />
    <glyph glyph-name="AE" unicode="&#xc6;" horiz-adv-x="846" 
d="M375 532l-122 -277h160v277h-38zM413 0v144h-209l-63 -144h-131l287 641h511v-117h-270v-142h230v-118h-230v-146h270v-118h-395z" />
    <glyph glyph-name="Ccedilla" unicode="&#xc7;" horiz-adv-x="632" 
d="M610 567l-83 -95q-67 58 -153 58q-30 0 -63 -11t-62.5 -37t-50.5 -67.5t-21 -94.5q0 -42 15.5 -80.5t43 -67t65.5 -45t81 -16.5q41 0 80 15.5t65 42.5l83 -92q-75 -81 -205 -90l-65 -175l-99 40l79 138q-43 7 -90 28.5t-83 57.5t-57.5 73.5t-33.5 81.5t-12 89
q0 67 25.5 128.5t71 108t106 72.5t126.5 26q149 0 237 -88z" />
    <glyph glyph-name="Egrave" unicode="&#xc8;" horiz-adv-x="530" 
d="M77 0v641h415v-117h-290v-142h250v-118h-250v-146h290v-118h-415zM245 850l98 -156h-111l-131 156h144z" />
    <glyph glyph-name="Eacute" unicode="&#xc9;" horiz-adv-x="530" 
d="M77 0v641h415v-117h-290v-142h250v-118h-250v-146h290v-118h-415zM317 850h144l-131 -156h-111z" />
    <glyph glyph-name="Ecircumflex" unicode="&#xca;" horiz-adv-x="530" 
d="M77 0v641h415v-117h-290v-142h250v-118h-250v-146h290v-118h-415zM226 850h111l118 -156h-116l-58 85l-58 -85h-116z" />
    <glyph glyph-name="Edieresis" unicode="&#xcb;" horiz-adv-x="530" 
d="M77 0v641h415v-117h-290v-142h250v-118h-250v-146h290v-118h-415zM189 706q-26 0 -45 19t-19 46t19 46.5t45 19.5q27 0 46.5 -19.5t19.5 -46.5q0 -26 -19.5 -45.5t-46.5 -19.5zM371 706q-26 0 -45 19t-19 46t19 46.5t45 19.5q27 0 46.5 -19.5t19.5 -46.5
q0 -26 -19.5 -45.5t-46.5 -19.5z" />
    <glyph glyph-name="Igrave" unicode="&#xcc;" horiz-adv-x="278" 
d="M77 0v641h125v-641h-125zM103 850l98 -156h-111l-131 156h144z" />
    <glyph glyph-name="Iacute" unicode="&#xcd;" horiz-adv-x="278" 
d="M77 0v641h125v-641h-125zM175 850h144l-131 -156h-111z" />
    <glyph glyph-name="Icircumflex" unicode="&#xce;" horiz-adv-x="278" 
d="M77 0v641h125v-641h-125zM84 850h111l118 -156h-116l-58 85l-58 -85h-116z" />
    <glyph glyph-name="Idieresis" unicode="&#xcf;" horiz-adv-x="278" 
d="M77 0v641h125v-641h-125zM47 706q-26 0 -45 19t-19 46t19 46.5t45 19.5q27 0 46.5 -19.5t19.5 -46.5q0 -26 -19.5 -45.5t-46.5 -19.5zM229 706q-26 0 -45 19t-19 46t19 46.5t45 19.5q27 0 46.5 -19.5t19.5 -46.5q0 -26 -19.5 -45.5t-46.5 -19.5z" />
    <glyph glyph-name="Eth" unicode="&#xd0;" horiz-adv-x="695" 
d="M77 0v282h-66v103h66v256h213q77 0 144 -23.5t116 -67t75.5 -103.5t26.5 -128t-26.5 -127t-74.5 -102t-114 -66.5t-142 -23.5h-218zM289 523h-84v-138h125v-103h-125v-164h85q37 0 76.5 9.5t77 36.5t56 69.5t18.5 87.5q0 91 -63 146.5t-166 55.5z" />
    <glyph glyph-name="Ntilde" unicode="&#xd1;" horiz-adv-x="709" 
d="M499 0l-299 434v-434h-125v641h135l299 -439v439h125v-641h-135zM433 702q-30 0 -73 23t-66 23q-31 0 -60 -49l-60 49q36 88 103 88q30 0 72.5 -23t65.5 -23q36 0 61 49l60 -50q-36 -87 -103 -87z" />
    <glyph glyph-name="Ograve" unicode="&#xd2;" horiz-adv-x="751" 
d="M375 655q66 0 127 -26t107 -72.5t72 -108t26 -128.5t-26 -128.5t-72 -107.5t-107 -72t-127 -26t-127 26t-107 72t-71.5 107.5t-25.5 128.5t25.5 128.5t71.5 108t107 72.5t127 26zM375 111q30 0 63 11t67 40t51.5 72.5t17.5 85.5q0 31 -10.5 66.5t-38.5 71t-69 54
t-81 18.5q-29 0 -62.5 -11t-67 -40.5t-51 -73t-17.5 -85.5q0 -31 10.5 -66t38.5 -70.5t68.5 -54t80.5 -18.5zM339 850l98 -156h-111l-131 156h144z" />
    <glyph glyph-name="Oacute" unicode="&#xd3;" horiz-adv-x="751" 
d="M375 655q66 0 127 -26t107 -72.5t72 -108t26 -128.5t-26 -128.5t-72 -107.5t-107 -72t-127 -26t-127 26t-107 72t-71.5 107.5t-25.5 128.5t25.5 128.5t71.5 108t107 72.5t127 26zM375 111q30 0 63 11t67 40t51.5 72.5t17.5 85.5q0 31 -10.5 66.5t-38.5 71t-69 54
t-81 18.5q-29 0 -62.5 -11t-67 -40.5t-51 -73t-17.5 -85.5q0 -31 10.5 -66t38.5 -70.5t68.5 -54t80.5 -18.5zM411 850h144l-131 -156h-111z" />
    <glyph glyph-name="Ocircumflex" unicode="&#xd4;" horiz-adv-x="751" 
d="M375 655q66 0 127 -26t107 -72.5t72 -108t26 -128.5t-26 -128.5t-72 -107.5t-107 -72t-127 -26t-127 26t-107 72t-71.5 107.5t-25.5 128.5t25.5 128.5t71.5 108t107 72.5t127 26zM375 111q30 0 63 11t67 40t51.5 72.5t17.5 85.5q0 31 -10.5 66.5t-38.5 71t-69 54
t-81 18.5q-29 0 -62.5 -11t-67 -40.5t-51 -73t-17.5 -85.5q0 -31 10.5 -66t38.5 -70.5t68.5 -54t80.5 -18.5zM320 850h111l118 -156h-116l-58 85l-58 -85h-116z" />
    <glyph glyph-name="Otilde" unicode="&#xd5;" horiz-adv-x="751" 
d="M375 655q66 0 127 -26t107 -72.5t72 -108t26 -128.5t-26 -128.5t-72 -107.5t-107 -72t-127 -26t-127 26t-107 72t-71.5 107.5t-25.5 128.5t25.5 128.5t71.5 108t107 72.5t127 26zM375 111q30 0 63 11t67 40t51.5 72.5t17.5 85.5q0 31 -10.5 66.5t-38.5 71t-69 54
t-81 18.5q-29 0 -62.5 -11t-67 -40.5t-51 -73t-17.5 -85.5q0 -31 10.5 -66t38.5 -70.5t68.5 -54t80.5 -18.5zM453 702q-30 0 -73 23t-66 23q-31 0 -60 -49l-60 49q36 88 103 88q30 0 72.5 -23t65.5 -23q36 0 61 49l60 -50q-36 -87 -103 -87z" />
    <glyph glyph-name="Odieresis" unicode="&#xd6;" horiz-adv-x="751" 
d="M375 655q66 0 127 -26t107 -72.5t72 -108t26 -128.5t-26 -128.5t-72 -107.5t-107 -72t-127 -26t-127 26t-107 72t-71.5 107.5t-25.5 128.5t25.5 128.5t71.5 108t107 72.5t127 26zM375 111q30 0 63 11t67 40t51.5 72.5t17.5 85.5q0 31 -10.5 66.5t-38.5 71t-69 54
t-81 18.5q-29 0 -62.5 -11t-67 -40.5t-51 -73t-17.5 -85.5q0 -31 10.5 -66t38.5 -70.5t68.5 -54t80.5 -18.5zM283 706q-26 0 -45 19t-19 46t19 46.5t45 19.5q27 0 46.5 -19.5t19.5 -46.5q0 -26 -19.5 -45.5t-46.5 -19.5zM465 706q-26 0 -45 19t-19 46t19 46.5t45 19.5
q27 0 46.5 -19.5t19.5 -46.5q0 -26 -19.5 -45.5t-46.5 -19.5z" />
    <glyph glyph-name="multiply" unicode="&#xd7;" horiz-adv-x="521" 
d="M142 522l119 -119l121 121l82 -82l-121 -121l119 -119l-82 -82l-119 120l-121 -121l-82 81l121 121l-118 119z" />
    <glyph glyph-name="Oslash" unicode="&#xd8;" horiz-adv-x="751" 
d="M375 655q37 0 77 -10t72 -26l47 69l71 -46l-48 -71q52 -46 82.5 -112.5t30.5 -138.5q0 -67 -26 -128.5t-72 -107.5t-107 -72t-127 -26q-38 0 -79 10.5t-74 27.5l-48 -71l-71 46l50 73q-50 47 -79.5 112t-29.5 136q0 67 25.5 128.5t71.5 108t107 72.5t127 26zM177 320
q0 -39 13.5 -75t36.5 -63l225 332q-37 16 -77 16q-29 0 -62.5 -11t-67 -40.5t-51 -73t-17.5 -85.5zM375 111q30 0 63 11t67 40t51.5 72.5t17.5 85.5q0 40 -14 77.5t-39 65.5l-227 -334q41 -18 81 -18z" />
    <glyph glyph-name="Ugrave" unicode="&#xd9;" horiz-adv-x="664" 
d="M70 261v380h125v-378q0 -68 38 -110t100 -42q61 0 98.5 41.5t37.5 109.5v379h125v-380q0 -60 -19 -111.5t-53.5 -88t-83.5 -56t-107 -19.5q-42 0 -87.5 13t-83.5 45.5t-58 74t-26 77.5t-6 65zM296 850l98 -156h-111l-131 156h144z" />
    <glyph glyph-name="Uacute" unicode="&#xda;" horiz-adv-x="664" 
d="M70 261v380h125v-378q0 -68 38 -110t100 -42q61 0 98.5 41.5t37.5 109.5v379h125v-380q0 -60 -19 -111.5t-53.5 -88t-83.5 -56t-107 -19.5q-42 0 -87.5 13t-83.5 45.5t-58 74t-26 77.5t-6 65zM368 850h144l-131 -156h-111z" />
    <glyph glyph-name="Ucircumflex" unicode="&#xdb;" horiz-adv-x="664" 
d="M70 261v380h125v-378q0 -68 38 -110t100 -42q61 0 98.5 41.5t37.5 109.5v379h125v-380q0 -60 -19 -111.5t-53.5 -88t-83.5 -56t-107 -19.5q-42 0 -87.5 13t-83.5 45.5t-58 74t-26 77.5t-6 65zM277 850h111l118 -156h-116l-58 85l-58 -85h-116z" />
    <glyph glyph-name="Udieresis" unicode="&#xdc;" horiz-adv-x="664" 
d="M70 261v380h125v-378q0 -68 38 -110t100 -42q61 0 98.5 41.5t37.5 109.5v379h125v-380q0 -60 -19 -111.5t-53.5 -88t-83.5 -56t-107 -19.5q-42 0 -87.5 13t-83.5 45.5t-58 74t-26 77.5t-6 65zM240 706q-26 0 -45 19t-19 46t19 46.5t45 19.5q27 0 46.5 -19.5t19.5 -46.5
q0 -26 -19.5 -45.5t-46.5 -19.5zM422 706q-26 0 -45 19t-19 46t19 46.5t45 19.5q27 0 46.5 -19.5t19.5 -46.5q0 -26 -19.5 -45.5t-46.5 -19.5z" />
    <glyph glyph-name="Yacute" unicode="&#xdd;" horiz-adv-x="623" 
d="M249 0v213l-236 428h139l162 -296l164 296h132l-236 -428v-213h-125zM348 850h144l-131 -156h-111z" />
    <glyph glyph-name="Thorn" unicode="&#xde;" horiz-adv-x="596" 
d="M315 430h-113v-205h113q24 0 51.5 9.5t45.5 34.5t18 59q0 33 -18 58t-45.5 34.5t-51.5 9.5zM202 0h-125v641h125v-101h103q57 0 104.5 -15t81.5 -43t52.5 -67.5t18.5 -86.5q0 -96 -71 -154.5t-188 -58.5h-101v-115z" />
    <glyph glyph-name="germandbls" unicode="&#xdf;" horiz-adv-x="589" 
d="M294 587q-45 0 -71 -29t-26 -84v-474h-122v473q0 105 59.5 167t158.5 62q48 0 88 -15t68.5 -41.5t44 -63t15.5 -78.5q0 -39 -17.5 -73t-49.5 -57q51 -25 79 -70t28 -105q0 -35 -11 -72t-37 -68t-68.5 -52t-98.5 -21q-60 0 -94 17l28 107q24 -9 53 -9q21 0 46 9.5t42.5 35
t17.5 58.5q0 35 -18 61t-47 36t-57 10h-43v101h36q32 0 53.5 15.5t28.5 35.5t7 36q0 38 -24.5 63t-68.5 25z" />
    <glyph glyph-name="agrave" unicode="&#xe0;" horiz-adv-x="610" 
d="M416 0v52q-27 -31 -64 -48.5t-82 -17.5q-46 0 -88.5 18.5t-74 52.5t-49.5 81t-18 101q0 53 17 100t48 81.5t74 53.5t91 19q92 0 146 -62v48h123v-479h-123zM290 101q26 0 55 13.5t50 48.5t21 77q0 58 -36 98t-90 40q-42 0 -73 -24t-43 -55.5t-12 -58.5t12 -59t43 -56
t73 -24zM263 688l98 -156h-111l-131 156h144z" />
    <glyph glyph-name="aacute" unicode="&#xe1;" horiz-adv-x="610" 
d="M416 0v52q-27 -31 -64 -48.5t-82 -17.5q-46 0 -88.5 18.5t-74 52.5t-49.5 81t-18 101q0 53 17 100t48 81.5t74 53.5t91 19q92 0 146 -62v48h123v-479h-123zM290 101q26 0 55 13.5t50 48.5t21 77q0 58 -36 98t-90 40q-42 0 -73 -24t-43 -55.5t-12 -58.5t12 -59t43 -56
t73 -24zM335 688h144l-131 -156h-111z" />
    <glyph glyph-name="acircumflex" unicode="&#xe2;" horiz-adv-x="610" 
d="M416 0v52q-27 -31 -64 -48.5t-82 -17.5q-46 0 -88.5 18.5t-74 52.5t-49.5 81t-18 101q0 53 17 100t48 81.5t74 53.5t91 19q92 0 146 -62v48h123v-479h-123zM290 101q26 0 55 13.5t50 48.5t21 77q0 58 -36 98t-90 40q-42 0 -73 -24t-43 -55.5t-12 -58.5t12 -59t43 -56
t73 -24zM244 688h111l118 -156h-116l-58 85l-58 -85h-116z" />
    <glyph glyph-name="atilde" unicode="&#xe3;" horiz-adv-x="610" 
d="M416 0v52q-27 -31 -64 -48.5t-82 -17.5q-46 0 -88.5 18.5t-74 52.5t-49.5 81t-18 101q0 53 17 100t48 81.5t74 53.5t91 19q92 0 146 -62v48h123v-479h-123zM290 101q26 0 55 13.5t50 48.5t21 77q0 58 -36 98t-90 40q-42 0 -73 -24t-43 -55.5t-12 -58.5t12 -59t43 -56
t73 -24zM377 540q-30 0 -73 23t-66 23q-31 0 -60 -49l-60 49q36 88 103 88q30 0 72.5 -23t65.5 -23q36 0 61 49l60 -50q-36 -87 -103 -87z" />
    <glyph glyph-name="adieresis" unicode="&#xe4;" horiz-adv-x="610" 
d="M416 0v52q-27 -31 -64 -48.5t-82 -17.5q-46 0 -88.5 18.5t-74 52.5t-49.5 81t-18 101q0 53 17 100t48 81.5t74 53.5t91 19q92 0 146 -62v48h123v-479h-123zM290 101q26 0 55 13.5t50 48.5t21 77q0 58 -36 98t-90 40q-42 0 -73 -24t-43 -55.5t-12 -58.5t12 -59t43 -56
t73 -24zM207 544q-26 0 -45 19t-19 46t19 46.5t45 19.5q27 0 46.5 -19.5t19.5 -46.5q0 -26 -19.5 -45.5t-46.5 -19.5zM389 544q-26 0 -45 19t-19 46t19 46.5t45 19.5q27 0 46.5 -19.5t19.5 -46.5q0 -26 -19.5 -45.5t-46.5 -19.5z" />
    <glyph glyph-name="aring" unicode="&#xe5;" horiz-adv-x="610" 
d="M416 0v52q-27 -31 -64 -48.5t-82 -17.5q-46 0 -88.5 18.5t-74 52.5t-49.5 81t-18 101q0 53 17 100t48 81.5t74 53.5t91 19q92 0 146 -62v48h123v-479h-123zM290 101q26 0 55 13.5t50 48.5t21 77q0 58 -36 98t-90 40q-42 0 -73 -24t-43 -55.5t-12 -58.5t12 -59t43 -56
t73 -24zM299 522q-50 0 -85 34t-35 82t35 82t85 34t85 -34t35 -82t-35 -82t-85 -34zM300 585q21 0 36.5 15.5t15.5 37.5t-15.5 37.5t-36.5 15.5t-36.5 -15.5t-15.5 -37.5t15.5 -37.5t36.5 -15.5z" />
    <glyph glyph-name="ae" unicode="&#xe6;" horiz-adv-x="926" 
d="M416 0v56q-25 -33 -62.5 -51.5t-83.5 -18.5t-88.5 18.5t-74 52.5t-49.5 81t-18 101q0 53 17 100t48 81.5t74 53.5t91 19q93 0 146 -66v52h116v-51q54 65 140 65q42 0 82.5 -18.5t71 -52t48.5 -78.5t18 -95l-2 -40h-355q4 -23 18.5 -50t45 -46t67.5 -19t68.5 13.5
t53.5 36.5l64 -83q-28 -31 -78.5 -53t-98.5 -22q-88 0 -143 66v-52h-116zM290 101q26 0 55 13.5t50 48.5t21 77q0 58 -36 98t-90 40q-42 0 -73 -24t-43 -55.5t-12 -58.5t12 -59t43 -56t73 -24zM653 389q-43 0 -74 -28.5t-42 -74.5h230q-10 49 -40.5 76t-73.5 27z" />
    <glyph glyph-name="ccedilla" unicode="&#xe7;" horiz-adv-x="495" 
d="M409 334q-46 44 -113 44q-22 0 -45 -7t-44.5 -26t-33 -48.5t-11.5 -56.5t12.5 -59t44.5 -56t76 -24q71 0 118 47l62 -90q-24 -27 -64 -46t-85 -24l-65 -176l-99 40l80 139q-43 8 -80 31t-64.5 56t-42.5 75t-15 86q0 51 19 97.5t53.5 81.5t80.5 55t97 20q59 0 108 -19.5
t81 -52.5z" />
    <glyph glyph-name="egrave" unicode="&#xe8;" horiz-adv-x="556" 
d="M297 -14q-54 0 -101.5 19.5t-82.5 54.5t-54 81.5t-19 97.5q0 24 6 56t22.5 64.5t41 58.5t55.5 44t62 24.5t55 6.5q50 0 94.5 -18.5t77.5 -52t51 -78.5t18 -95q0 -28 -3 -40h-355q9 -51 46 -83t91 -32q34 0 64.5 13.5t52.5 36.5l63 -83q-28 -33 -77.5 -54t-107.5 -21z
M284 389q-44 0 -75 -28.5t-42 -74.5h231q-10 49 -40.5 76t-73.5 27zM242 688l98 -156h-111l-131 156h144z" />
    <glyph glyph-name="eacute" unicode="&#xe9;" horiz-adv-x="556" 
d="M297 -14q-54 0 -101.5 19.5t-82.5 54.5t-54 81.5t-19 97.5q0 24 6 56t22.5 64.5t41 58.5t55.5 44t62 24.5t55 6.5q50 0 94.5 -18.5t77.5 -52t51 -78.5t18 -95q0 -28 -3 -40h-355q9 -51 46 -83t91 -32q34 0 64.5 13.5t52.5 36.5l63 -83q-28 -33 -77.5 -54t-107.5 -21z
M284 389q-44 0 -75 -28.5t-42 -74.5h231q-10 49 -40.5 76t-73.5 27zM314 688h144l-131 -156h-111z" />
    <glyph glyph-name="ecircumflex" unicode="&#xea;" horiz-adv-x="556" 
d="M297 -14q-54 0 -101.5 19.5t-82.5 54.5t-54 81.5t-19 97.5q0 24 6 56t22.5 64.5t41 58.5t55.5 44t62 24.5t55 6.5q50 0 94.5 -18.5t77.5 -52t51 -78.5t18 -95q0 -28 -3 -40h-355q9 -51 46 -83t91 -32q34 0 64.5 13.5t52.5 36.5l63 -83q-28 -33 -77.5 -54t-107.5 -21z
M284 389q-44 0 -75 -28.5t-42 -74.5h231q-10 49 -40.5 76t-73.5 27zM223 688h111l118 -156h-116l-58 85l-58 -85h-116z" />
    <glyph glyph-name="edieresis" unicode="&#xeb;" horiz-adv-x="556" 
d="M297 -14q-54 0 -101.5 19.5t-82.5 54.5t-54 81.5t-19 97.5q0 24 6 56t22.5 64.5t41 58.5t55.5 44t62 24.5t55 6.5q50 0 94.5 -18.5t77.5 -52t51 -78.5t18 -95q0 -28 -3 -40h-355q9 -51 46 -83t91 -32q34 0 64.5 13.5t52.5 36.5l63 -83q-28 -33 -77.5 -54t-107.5 -21z
M284 389q-44 0 -75 -28.5t-42 -74.5h231q-10 49 -40.5 76t-73.5 27zM186 544q-26 0 -45 19t-19 46t19 46.5t45 19.5q27 0 46.5 -19.5t19.5 -46.5q0 -26 -19.5 -45.5t-46.5 -19.5zM368 544q-26 0 -45 19t-19 46t19 46.5t45 19.5q27 0 46.5 -19.5t19.5 -46.5
q0 -26 -19.5 -45.5t-46.5 -19.5z" />
    <glyph glyph-name="igrave" unicode="&#xec;" horiz-adv-x="265" 
d="M194 479v-479h-122v479h122zM97 688l98 -156h-111l-131 156h144z" />
    <glyph glyph-name="iacute" unicode="&#xed;" horiz-adv-x="265" 
d="M194 479v-479h-122v479h122zM169 688h144l-131 -156h-111z" />
    <glyph glyph-name="icircumflex" unicode="&#xee;" horiz-adv-x="265" 
d="M194 479v-479h-122v479h122zM78 688h111l118 -156h-116l-58 85l-58 -85h-116z" />
    <glyph glyph-name="idieresis" unicode="&#xef;" horiz-adv-x="265" 
d="M194 479v-479h-122v479h122zM41 544q-26 0 -45 19t-19 46t19 46.5t45 19.5q27 0 46.5 -19.5t19.5 -46.5q0 -26 -19.5 -45.5t-46.5 -19.5zM223 544q-26 0 -45 19t-19 46t19 46.5t45 19.5q27 0 46.5 -19.5t19.5 -46.5q0 -26 -19.5 -45.5t-46.5 -19.5z" />
    <glyph glyph-name="eth" unicode="&#xf0;" 
d="M290 101q39 0 70.5 22t43.5 53t12 57t-12 57.5t-43.5 53t-70.5 21.5q-55 0 -91.5 -37.5t-36.5 -94.5q0 -56 36.5 -94t91.5 -38zM289 469q42 0 88 -30q-28 52 -81 107l-75 -43l-39 65l53 30q-39 30 -70 44l83 76q50 -24 94 -59l66 37l38 -65l-45 -26q65 -69 101.5 -156
t36.5 -180q0 -63 -18 -115.5t-51.5 -90t-79.5 -57.5t-101 -20q-50 0 -96 19t-80.5 53t-53.5 79.5t-19 95.5t19 94t53.5 75.5t80 49t96.5 17.5z" />
    <glyph glyph-name="ntilde" unicode="&#xf1;" 
d="M194 272v-272h-122v479h122v-47q22 29 57 45t78 16q83 0 132.5 -55t49.5 -148v-290h-122v272q0 48 -26.5 77t-70.5 29q-45 0 -71.5 -29t-26.5 -77zM370 540q-30 0 -73 23t-66 23q-31 0 -60 -49l-60 49q36 88 103 88q30 0 72.5 -23t65.5 -23q36 0 61 49l60 -50
q-36 -87 -103 -87z" />
    <glyph glyph-name="ograve" unicode="&#xf2;" 
d="M289 -14q-50 0 -96 19.5t-80.5 55t-53.5 82t-19 96.5q0 51 19 97.5t53.5 81.5t80.5 55t96 20t102 -22.5t87 -65.5t48 -85.5t13 -80.5q0 -24 -6.5 -55.5t-23.5 -64t-47.5 -63t-76.5 -50.5t-96 -20zM290 101q26 0 55 13.5t50 48.5t21 77q0 58 -36 98t-90 40q-42 0 -73 -24
t-43 -55.5t-12 -58.5t12 -59t43 -56t73 -24zM253 688l98 -156h-111l-131 156h144z" />
    <glyph glyph-name="oacute" unicode="&#xf3;" 
d="M289 -14q-50 0 -96 19.5t-80.5 55t-53.5 82t-19 96.5q0 51 19 97.5t53.5 81.5t80.5 55t96 20t102 -22.5t87 -65.5t48 -85.5t13 -80.5q0 -24 -6.5 -55.5t-23.5 -64t-47.5 -63t-76.5 -50.5t-96 -20zM290 101q26 0 55 13.5t50 48.5t21 77q0 58 -36 98t-90 40q-42 0 -73 -24
t-43 -55.5t-12 -58.5t12 -59t43 -56t73 -24zM325 688h144l-131 -156h-111z" />
    <glyph glyph-name="ocircumflex" unicode="&#xf4;" 
d="M289 -14q-50 0 -96 19.5t-80.5 55t-53.5 82t-19 96.5q0 51 19 97.5t53.5 81.5t80.5 55t96 20t102 -22.5t87 -65.5t48 -85.5t13 -80.5q0 -24 -6.5 -55.5t-23.5 -64t-47.5 -63t-76.5 -50.5t-96 -20zM290 101q26 0 55 13.5t50 48.5t21 77q0 58 -36 98t-90 40q-42 0 -73 -24
t-43 -55.5t-12 -58.5t12 -59t43 -56t73 -24zM234 688h111l118 -156h-116l-58 85l-58 -85h-116z" />
    <glyph glyph-name="otilde" unicode="&#xf5;" 
d="M289 -14q-50 0 -96 19.5t-80.5 55t-53.5 82t-19 96.5q0 51 19 97.5t53.5 81.5t80.5 55t96 20t102 -22.5t87 -65.5t48 -85.5t13 -80.5q0 -24 -6.5 -55.5t-23.5 -64t-47.5 -63t-76.5 -50.5t-96 -20zM290 101q26 0 55 13.5t50 48.5t21 77q0 58 -36 98t-90 40q-42 0 -73 -24
t-43 -55.5t-12 -58.5t12 -59t43 -56t73 -24zM367 540q-30 0 -73 23t-66 23q-31 0 -60 -49l-60 49q36 88 103 88q30 0 72.5 -23t65.5 -23q36 0 61 49l60 -50q-36 -87 -103 -87z" />
    <glyph glyph-name="odieresis" unicode="&#xf6;" 
d="M289 -14q-50 0 -96 19.5t-80.5 55t-53.5 82t-19 96.5q0 51 19 97.5t53.5 81.5t80.5 55t96 20t102 -22.5t87 -65.5t48 -85.5t13 -80.5q0 -24 -6.5 -55.5t-23.5 -64t-47.5 -63t-76.5 -50.5t-96 -20zM290 101q26 0 55 13.5t50 48.5t21 77q0 58 -36 98t-90 40q-42 0 -73 -24
t-43 -55.5t-12 -58.5t12 -59t43 -56t73 -24zM197 544q-26 0 -45 19t-19 46t19 46.5t45 19.5q27 0 46.5 -19.5t19.5 -46.5q0 -26 -19.5 -45.5t-46.5 -19.5zM379 544q-26 0 -45 19t-19 46t19 46.5t45 19.5q27 0 46.5 -19.5t19.5 -46.5q0 -26 -19.5 -45.5t-46.5 -19.5z" />
    <glyph glyph-name="divide" unicode="&#xf7;" horiz-adv-x="521" 
d="M45 266v111h431v-111h-431zM259 46q-32 0 -55.5 23.5t-23.5 55.5t23.5 56t55.5 24t56 -24t24 -56t-23.5 -55.5t-56.5 -23.5zM259 436q-32 0 -55.5 23.5t-23.5 55.5t23.5 56t55.5 24t56 -24t24 -56t-24 -55.5t-56 -23.5z" />
    <glyph glyph-name="oslash" unicode="&#xf8;" horiz-adv-x="592" 
d="M296 -14q-60 0 -112 26l-37 -54l-60 41l36 53q-38 35 -60.5 84t-22.5 103q0 51 20 97.5t55 81.5t82.5 55t98.5 20q59 0 112 -25l40 58l60 -41l-39 -58q39 -35 61.5 -84t22.5 -104q0 -24 -8 -62t-36 -79t-64 -65t-73.5 -35.5t-75.5 -11.5zM162 240q0 -24 8 -47.5t22 -40.5
l150 219q-24 7 -45 7q-44 0 -77 -24t-45.5 -55.5t-12.5 -58.5zM297 101q56 0 94.5 41t38.5 98q0 23 -8 47t-21 41l-151 -219q24 -8 47 -8z" />
    <glyph glyph-name="ugrave" unicode="&#xf9;" 
d="M187 479v-259q0 -24 9.5 -52t34.5 -46.5t58 -18.5t58 18.5t34.5 46.5t9.5 52v259h122v-268q0 -100 -61.5 -161.5t-162.5 -61.5t-162.5 61.5t-61.5 161.5v268h122zM253 688l98 -156h-111l-131 156h144z" />
    <glyph glyph-name="uacute" unicode="&#xfa;" 
d="M187 479v-259q0 -24 9.5 -52t34.5 -46.5t58 -18.5t58 18.5t34.5 46.5t9.5 52v259h122v-268q0 -100 -61.5 -161.5t-162.5 -61.5t-162.5 61.5t-61.5 161.5v268h122zM325 688h144l-131 -156h-111z" />
    <glyph glyph-name="ucircumflex" unicode="&#xfb;" 
d="M187 479v-259q0 -24 9.5 -52t34.5 -46.5t58 -18.5t58 18.5t34.5 46.5t9.5 52v259h122v-268q0 -100 -61.5 -161.5t-162.5 -61.5t-162.5 61.5t-61.5 161.5v268h122zM234 688h111l118 -156h-116l-58 85l-58 -85h-116z" />
    <glyph glyph-name="udieresis" unicode="&#xfc;" 
d="M187 479v-259q0 -24 9.5 -52t34.5 -46.5t58 -18.5t58 18.5t34.5 46.5t9.5 52v259h122v-268q0 -100 -61.5 -161.5t-162.5 -61.5t-162.5 61.5t-61.5 161.5v268h122zM197 544q-26 0 -45 19t-19 46t19 46.5t45 19.5q27 0 46.5 -19.5t19.5 -46.5q0 -26 -19.5 -45.5
t-46.5 -19.5zM379 544q-26 0 -45 19t-19 46t19 46.5t45 19.5q27 0 46.5 -19.5t19.5 -46.5q0 -26 -19.5 -45.5t-46.5 -19.5z" />
    <glyph glyph-name="yacute" unicode="&#xfd;" horiz-adv-x="537" 
d="M144 479l139 -330l115 330h123l-196 -540q-53 -149 -178 -149q-36 0 -71.5 14.5t-59.5 36.5l55 96q16 -15 37 -23.5t40 -8.5q25 0 43 17.5t33 58.5l4 12l-219 486h135zM305 688h144l-131 -156h-111z" />
    <glyph glyph-name="thorn" unicode="&#xfe;" horiz-adv-x="610" 
d="M72 688h122v-261q27 31 64 48.5t82 17.5q46 0 88.5 -18.5t74 -52.5t49.5 -81t18 -101q0 -53 -17 -100t-48 -81.5t-74 -53.5t-91 -19q-92 0 -146 62v-244h-122v884zM321 378q-41 0 -72 -24t-43 -56t-12 -59q0 -58 36.5 -98t90.5 -40q42 0 72.5 24t42.5 55.5t12 58.5
t-12 59t-42.5 56t-72.5 24z" />
    <glyph glyph-name="ydieresis" unicode="&#xff;" horiz-adv-x="537" 
d="M144 479l139 -330l115 330h123l-196 -540q-53 -149 -178 -149q-36 0 -71.5 14.5t-59.5 36.5l55 96q16 -15 37 -23.5t40 -8.5q25 0 43 17.5t33 58.5l4 12l-219 486h135zM177 544q-26 0 -45 19t-19 46t19 46.5t45 19.5q27 0 46.5 -19.5t19.5 -46.5q0 -26 -19.5 -45.5
t-46.5 -19.5zM359 544q-26 0 -45 19t-19 46t19 46.5t45 19.5q27 0 46.5 -19.5t19.5 -46.5q0 -26 -19.5 -45.5t-46.5 -19.5z" />
    <glyph glyph-name="Amacron" unicode="&#x100;" horiz-adv-x="694" 
d="M539 0l-55 144h-281l-56 -144h-131l258 641h146l258 -641h-139zM198 821h297v-90h-297v90zM441 255l-98 254l-98 -254h196z" />
    <glyph glyph-name="amacron" unicode="&#x101;" horiz-adv-x="610" 
d="M416 0v52q-27 -31 -64 -48.5t-82 -17.5q-46 0 -88.5 18.5t-74 52.5t-49.5 81t-18 101q0 53 17 100t48 81.5t74 53.5t91 19q92 0 146 -62v48h123v-479h-123zM290 101q26 0 55 13.5t50 48.5t21 77q0 58 -36 98t-90 40q-42 0 -73 -24t-43 -55.5t-12 -58.5t12 -59t43 -56
t73 -24zM150 659h297v-90h-297v90z" />
    <glyph glyph-name="Abreve" unicode="&#x102;" horiz-adv-x="694" 
d="M539 0l-55 144h-281l-56 -144h-131l258 641h146l258 -641h-139zM347 684q-65 0 -108 45t-43 115h86q0 -38 18.5 -59t46.5 -21t46.5 21t18.5 59h87q0 -70 -43 -115t-109 -45zM441 255l-98 254l-98 -254h196z" />
    <glyph glyph-name="abreve" unicode="&#x103;" horiz-adv-x="610" 
d="M416 0v52q-27 -31 -64 -48.5t-82 -17.5q-46 0 -88.5 18.5t-74 52.5t-49.5 81t-18 101q0 53 17 100t48 81.5t74 53.5t91 19q92 0 146 -62v48h123v-479h-123zM290 101q26 0 55 13.5t50 48.5t21 77q0 58 -36 98t-90 40q-42 0 -73 -24t-43 -55.5t-12 -58.5t12 -59t43 -56
t73 -24zM299 522q-65 0 -108 45t-43 115h86q0 -38 18.5 -59t46.5 -21t46.5 21t18.5 59h87q0 -70 -43 -115t-109 -45z" />
    <glyph glyph-name="Aogonek" unicode="&#x104;" horiz-adv-x="694" 
d="M636 -154q-17 -19 -45.5 -33t-63.5 -14q-31 0 -58 13t-38 34.5t-11 42.5q0 75 109 136l-45 119h-281l-56 -144h-131l258 641h146l258 -641h-90q-39 -23 -58 -48t-19 -45q0 -15 9.5 -23t24.5 -8q28 0 55 21zM441 255l-98 254l-98 -254h196z" />
    <glyph glyph-name="aogonek" unicode="&#x105;" horiz-adv-x="610" 
d="M270 -14q-46 0 -88.5 18.5t-74 52.5t-49.5 81t-18 101q0 53 17 100t48 81.5t74 53.5t91 19q92 0 146 -62v48h123v-479h-40q-37 -24 -55 -48.5t-18 -44.5q0 -15 9.5 -23t24.5 -8q28 0 58 24l36 -51q-18 -21 -47 -35.5t-65 -14.5q-31 0 -58 13t-38 34.5t-11 42.5
q0 66 81 121v42q-27 -31 -64 -48.5t-82 -17.5zM290 101q26 0 55 13.5t50 48.5t21 77q0 58 -36 98t-90 40q-42 0 -73 -24t-43 -55.5t-12 -58.5t12 -59t43 -56t73 -24z" />
    <glyph glyph-name="Cacute" unicode="&#x106;" horiz-adv-x="632" 
d="M610 567l-83 -95q-67 58 -153 58q-30 0 -63 -11t-62.5 -37t-50.5 -67.5t-21 -94.5q0 -42 15.5 -80.5t43 -67t65.5 -45t81 -16.5q41 0 80 15.5t65 42.5l83 -92q-84 -91 -237 -91q-68 0 -128.5 26t-105.5 72t-70 107.5t-25 128.5t25.5 128.5t71 108t106 72.5t126.5 26
q149 0 237 -88zM402 850h144l-131 -156h-111z" />
    <glyph glyph-name="cacute" unicode="&#x107;" horiz-adv-x="495" 
d="M409 334q-46 44 -113 44q-22 0 -45 -7t-44.5 -26t-33 -48.5t-11.5 -56.5t12.5 -59t44.5 -56t76 -24q71 0 118 47l62 -90q-29 -32 -78.5 -52t-104.5 -20q-25 0 -56.5 6.5t-64 24t-62.5 48.5t-49.5 77t-19.5 97t19 97.5t53.5 81.5t80.5 55t97 20q59 0 108 -19.5t81 -52.5z
M310 688h144l-131 -156h-111z" />
    <glyph glyph-name="Ccircumflex" unicode="&#x108;" horiz-adv-x="632" 
d="M610 567l-83 -95q-67 58 -153 58q-30 0 -63 -11t-62.5 -37t-50.5 -67.5t-21 -94.5q0 -42 15.5 -80.5t43 -67t65.5 -45t81 -16.5q41 0 80 15.5t65 42.5l83 -92q-84 -91 -237 -91q-68 0 -128.5 26t-105.5 72t-70 107.5t-25 128.5t25.5 128.5t71 108t106 72.5t126.5 26
q149 0 237 -88zM311 850h111l118 -156h-116l-58 85l-58 -85h-116z" />
    <glyph glyph-name="ccircumflex" unicode="&#x109;" horiz-adv-x="495" 
d="M409 334q-46 44 -113 44q-22 0 -45 -7t-44.5 -26t-33 -48.5t-11.5 -56.5t12.5 -59t44.5 -56t76 -24q71 0 118 47l62 -90q-29 -32 -78.5 -52t-104.5 -20q-25 0 -56.5 6.5t-64 24t-62.5 48.5t-49.5 77t-19.5 97t19 97.5t53.5 81.5t80.5 55t97 20q59 0 108 -19.5t81 -52.5z
M219 688h111l118 -156h-116l-58 85l-58 -85h-116z" />
    <glyph glyph-name="Cdotaccent" unicode="&#x10a;" horiz-adv-x="632" 
d="M610 567l-83 -95q-67 58 -153 58q-30 0 -63 -11t-62.5 -37t-50.5 -67.5t-21 -94.5q0 -42 15.5 -80.5t43 -67t65.5 -45t81 -16.5q41 0 80 15.5t65 42.5l83 -92q-84 -91 -237 -91q-68 0 -128.5 26t-105.5 72t-70 107.5t-25 128.5t25.5 128.5t71 108t106 72.5t126.5 26
q149 0 237 -88zM365 706q-29 0 -50 21t-21 50t21 50.5t50 21.5t50.5 -21.5t21.5 -50.5t-21 -50t-51 -21z" />
    <glyph glyph-name="cdotaccent" unicode="&#x10b;" horiz-adv-x="495" 
d="M409 334q-46 44 -113 44q-22 0 -45 -7t-44.5 -26t-33 -48.5t-11.5 -56.5t12.5 -59t44.5 -56t76 -24q71 0 118 47l62 -90q-29 -32 -78.5 -52t-104.5 -20q-25 0 -56.5 6.5t-64 24t-62.5 48.5t-49.5 77t-19.5 97t19 97.5t53.5 81.5t80.5 55t97 20q59 0 108 -19.5t81 -52.5z
M273 544q-29 0 -50 21t-21 50t21 50.5t50 21.5t50.5 -21.5t21.5 -50.5t-21 -50t-51 -21z" />
    <glyph glyph-name="Ccaron" unicode="&#x10c;" horiz-adv-x="632" 
d="M610 567l-83 -95q-67 58 -153 58q-30 0 -63 -11t-62.5 -37t-50.5 -67.5t-21 -94.5q0 -42 15.5 -80.5t43 -67t65.5 -45t81 -16.5q41 0 80 15.5t65 42.5l83 -92q-84 -91 -237 -91q-68 0 -128.5 26t-105.5 72t-70 107.5t-25 128.5t25.5 128.5t71 108t106 72.5t126.5 26
q149 0 237 -88zM422 694h-111l-119 156h116l58 -85l58 85h116z" />
    <glyph glyph-name="ccaron" unicode="&#x10d;" horiz-adv-x="495" 
d="M409 334q-46 44 -113 44q-22 0 -45 -7t-44.5 -26t-33 -48.5t-11.5 -56.5t12.5 -59t44.5 -56t76 -24q71 0 118 47l62 -90q-29 -32 -78.5 -52t-104.5 -20q-25 0 -56.5 6.5t-64 24t-62.5 48.5t-49.5 77t-19.5 97t19 97.5t53.5 81.5t80.5 55t97 20q59 0 108 -19.5t81 -52.5z
M330 532h-111l-119 156h116l58 -85l58 85h116z" />
    <glyph glyph-name="Dcaron" unicode="&#x10e;" horiz-adv-x="695" 
d="M77 0v641h213q77 0 144 -23.5t116 -67t75.5 -103.5t26.5 -128t-26.5 -127t-74.5 -102t-114 -66.5t-142 -23.5h-218zM289 523h-84v-405h85q37 0 76.5 9.5t77 36.5t56 69.5t18.5 87.5q0 91 -63 146.5t-166 55.5zM340 694h-111l-119 156h116l58 -85l58 85h116z" />
    <glyph glyph-name="dcaron" unicode="&#x10f;" horiz-adv-x="676" 
d="M290 101q26 0 55 13.5t50 48.5t21 77q0 58 -36 98t-90 40q-42 0 -73 -24t-43 -55.5t-12 -58.5t12 -59t43 -56t73 -24zM416 688h123v-688h-123v52q-27 -31 -64 -48.5t-82 -17.5q-46 0 -88.5 18.5t-74 52.5t-49.5 81t-18 101q0 53 17 100t48 81.5t74 53.5t91 19
q92 0 146 -62v257zM714 688l-41 -166h-89l20 166h110z" />
    <glyph glyph-name="Dcroat" unicode="&#x110;" horiz-adv-x="695" 
d="M77 0v282h-66v103h66v256h213q77 0 144 -23.5t116 -67t75.5 -103.5t26.5 -128t-26.5 -127t-74.5 -102t-114 -66.5t-142 -23.5h-218zM289 523h-84v-138h125v-103h-125v-164h85q37 0 76.5 9.5t77 36.5t56 69.5t18.5 87.5q0 91 -63 146.5t-166 55.5z" />
    <glyph glyph-name="dcroat" unicode="&#x111;" horiz-adv-x="610" 
d="M290 101q26 0 55 13.5t50 48.5t21 77q0 58 -36 98t-90 40q-42 0 -73 -24t-43 -55.5t-12 -58.5t12 -59t43 -56t73 -24zM416 688h123v-49h50v-90h-50v-549h-123v52q-27 -31 -64 -48.5t-82 -17.5q-46 0 -88.5 18.5t-74 52.5t-49.5 81t-18 101q0 53 17 100t48 81.5t74 53.5
t91 19q92 0 146 -62v118h-124v90h124v49z" />
    <glyph glyph-name="Emacron" unicode="&#x112;" horiz-adv-x="530" 
d="M77 0v641h415v-117h-290v-142h250v-118h-250v-146h290v-118h-415zM132 821h297v-90h-297v90z" />
    <glyph glyph-name="emacron" unicode="&#x113;" horiz-adv-x="556" 
d="M297 -14q-54 0 -101.5 19.5t-82.5 54.5t-54 81.5t-19 97.5q0 24 6 56t22.5 64.5t41 58.5t55.5 44t62 24.5t55 6.5q50 0 94.5 -18.5t77.5 -52t51 -78.5t18 -95q0 -28 -3 -40h-355q9 -51 46 -83t91 -32q34 0 64.5 13.5t52.5 36.5l63 -83q-28 -33 -77.5 -54t-107.5 -21z
M284 389q-44 0 -75 -28.5t-42 -74.5h231q-10 49 -40.5 76t-73.5 27zM129 659h297v-90h-297v90z" />
    <glyph glyph-name="Ebreve" unicode="&#x114;" horiz-adv-x="530" 
d="M77 0v641h415v-117h-290v-142h250v-118h-250v-146h290v-118h-415zM281 684q-65 0 -108 45t-43 115h86q0 -38 18.5 -59t46.5 -21t46.5 21t18.5 59h87q0 -70 -43 -115t-109 -45z" />
    <glyph glyph-name="ebreve" unicode="&#x115;" horiz-adv-x="556" 
d="M297 -14q-54 0 -101.5 19.5t-82.5 54.5t-54 81.5t-19 97.5q0 24 6 56t22.5 64.5t41 58.5t55.5 44t62 24.5t55 6.5q50 0 94.5 -18.5t77.5 -52t51 -78.5t18 -95q0 -28 -3 -40h-355q9 -51 46 -83t91 -32q34 0 64.5 13.5t52.5 36.5l63 -83q-28 -33 -77.5 -54t-107.5 -21z
M284 389q-44 0 -75 -28.5t-42 -74.5h231q-10 49 -40.5 76t-73.5 27zM278 522q-65 0 -108 45t-43 115h86q0 -38 18.5 -59t46.5 -21t46.5 21t18.5 59h87q0 -70 -43 -115t-109 -45z" />
    <glyph glyph-name="Edotaccent" unicode="&#x116;" horiz-adv-x="530" 
d="M77 0v641h415v-117h-290v-142h250v-118h-250v-146h290v-118h-415zM280 706q-29 0 -50 21t-21 50t21 50.5t50 21.5t50.5 -21.5t21.5 -50.5t-21 -50t-51 -21z" />
    <glyph glyph-name="edotaccent" unicode="&#x117;" horiz-adv-x="556" 
d="M297 -14q-54 0 -101.5 19.5t-82.5 54.5t-54 81.5t-19 97.5q0 24 6 56t22.5 64.5t41 58.5t55.5 44t62 24.5t55 6.5q50 0 94.5 -18.5t77.5 -52t51 -78.5t18 -95q0 -28 -3 -40h-355q9 -51 46 -83t91 -32q34 0 64.5 13.5t52.5 36.5l63 -83q-28 -33 -77.5 -54t-107.5 -21z
M284 389q-44 0 -75 -28.5t-42 -74.5h231q-10 49 -40.5 76t-73.5 27zM277 544q-29 0 -50 21t-21 50t21 50.5t50 21.5t50.5 -21.5t21.5 -50.5t-21 -50t-51 -21z" />
    <glyph glyph-name="Eogonek" unicode="&#x118;" horiz-adv-x="530" 
d="M77 0v641h415v-117h-290v-142h250v-118h-250v-146h290v-118h-42q-19 -12 -37.5 -28t-28.5 -33.5t-10 -31.5q0 -15 9.5 -23t24.5 -8q27 0 54 21l37 -51q-17 -19 -45.5 -33t-63.5 -14q-31 0 -58 13t-38 34.5t-11 42.5q0 60 69 111h-275z" />
    <glyph glyph-name="eogonek" unicode="&#x119;" horiz-adv-x="556" 
d="M437 -154q-17 -19 -45.5 -33t-63.5 -14q-26 0 -49.5 9t-40.5 29t-17 52q0 52 53 98q-37 3 -77 18t-79 50.5t-58.5 85.5t-19.5 98q0 24 6 56t22.5 64.5t41 58.5t55.5 44t62 24.5t55 6.5q50 0 94.5 -18.5t77.5 -52t51 -78.5t18 -95q0 -28 -3 -40h-355q9 -51 46 -83t91 -32
q34 0 64.5 13.5t52.5 36.5l63 -83q-31 -35 -82 -56q-22 -11 -43 -28t-33 -36t-12 -34t10 -23t25 -8q27 0 54 21zM284 389q-44 0 -75 -28.5t-42 -74.5h231q-10 49 -40.5 76t-73.5 27z" />
    <glyph glyph-name="Ecaron" unicode="&#x11a;" horiz-adv-x="530" 
d="M77 0v641h415v-117h-290v-142h250v-118h-250v-146h290v-118h-415zM337 694h-111l-119 156h116l58 -85l58 85h116z" />
    <glyph glyph-name="ecaron" unicode="&#x11b;" horiz-adv-x="556" 
d="M297 -14q-54 0 -101.5 19.5t-82.5 54.5t-54 81.5t-19 97.5q0 24 6 56t22.5 64.5t41 58.5t55.5 44t62 24.5t55 6.5q50 0 94.5 -18.5t77.5 -52t51 -78.5t18 -95q0 -28 -3 -40h-355q9 -51 46 -83t91 -32q34 0 64.5 13.5t52.5 36.5l63 -83q-28 -33 -77.5 -54t-107.5 -21z
M284 389q-44 0 -75 -28.5t-42 -74.5h231q-10 49 -40.5 76t-73.5 27zM334 532h-111l-119 156h116l58 -85l58 85h116z" />
    <glyph glyph-name="Gcircumflex" unicode="&#x11c;" horiz-adv-x="683" 
d="M615 56q-93 -70 -242 -70q-68 0 -128.5 26t-105.5 72t-70 107.5t-25 128.5t25.5 128.5t71 108t106 72.5t126.5 26q149 0 237 -88l-83 -95q-67 58 -153 58q-30 0 -63 -11t-62.5 -37t-50.5 -67.5t-21 -94.5q0 -42 15.5 -80.5t43 -67t65.5 -45t81 -16.5q58 0 108 25v181h125
v-261zM313 850h111l118 -156h-116l-58 85l-58 -85h-116z" />
    <glyph glyph-name="gcircumflex" unicode="&#x11d;" horiz-adv-x="603" 
d="M137 -51q63 -47 140 -47q28 0 60 10.5t52 40.5t20 75v42q-57 -63 -146 -63q-45 0 -91 20t-77.5 60.5t-43 82t-11.5 80.5q0 50 17.5 94.5t48 77t71.5 50.5t86 18q93 0 146 -58v47h123v-446q0 -50 -14.5 -96.5t-47 -79t-79.5 -50t-107 -17.5q-65 0 -119.5 17t-89.5 47z
M286 122q32 0 59 15t45.5 44.5t18.5 68.5t-18.5 68.5t-45.5 44.5t-59 15q-38 0 -69 -21.5t-43 -51.5t-12 -55t12 -55t43 -51.5t69 -21.5zM227 688h111l118 -156h-116l-58 85l-58 -85h-116z" />
    <glyph glyph-name="Gbreve" unicode="&#x11e;" horiz-adv-x="683" 
d="M615 56q-93 -70 -242 -70q-68 0 -128.5 26t-105.5 72t-70 107.5t-25 128.5t25.5 128.5t71 108t106 72.5t126.5 26q149 0 237 -88l-83 -95q-67 58 -153 58q-30 0 -63 -11t-62.5 -37t-50.5 -67.5t-21 -94.5q0 -42 15.5 -80.5t43 -67t65.5 -45t81 -16.5q58 0 108 25v181h125
v-261zM368 684q-65 0 -108 45t-43 115h86q0 -38 18.5 -59t46.5 -21t46.5 21t18.5 59h87q0 -70 -43 -115t-109 -45z" />
    <glyph glyph-name="gbreve" unicode="&#x11f;" horiz-adv-x="603" 
d="M137 -51q63 -47 140 -47q28 0 60 10.5t52 40.5t20 75v42q-57 -63 -146 -63q-45 0 -91 20t-77.5 60.5t-43 82t-11.5 80.5q0 50 17.5 94.5t48 77t71.5 50.5t86 18q93 0 146 -58v47h123v-446q0 -50 -14.5 -96.5t-47 -79t-79.5 -50t-107 -17.5q-65 0 -119.5 17t-89.5 47z
M286 122q32 0 59 15t45.5 44.5t18.5 68.5t-18.5 68.5t-45.5 44.5t-59 15q-38 0 -69 -21.5t-43 -51.5t-12 -55t12 -55t43 -51.5t69 -21.5zM282 522q-65 0 -108 45t-43 115h86q0 -38 18.5 -59t46.5 -21t46.5 21t18.5 59h87q0 -70 -43 -115t-109 -45z" />
    <glyph glyph-name="Gdotaccent" unicode="&#x120;" horiz-adv-x="683" 
d="M615 56q-93 -70 -242 -70q-68 0 -128.5 26t-105.5 72t-70 107.5t-25 128.5t25.5 128.5t71 108t106 72.5t126.5 26q149 0 237 -88l-83 -95q-67 58 -153 58q-30 0 -63 -11t-62.5 -37t-50.5 -67.5t-21 -94.5q0 -42 15.5 -80.5t43 -67t65.5 -45t81 -16.5q58 0 108 25v181h125
v-261zM367 706q-29 0 -50 21t-21 50t21 50.5t50 21.5t50.5 -21.5t21.5 -50.5t-21 -50t-51 -21z" />
    <glyph glyph-name="gdotaccent" unicode="&#x121;" horiz-adv-x="603" 
d="M137 -51q63 -47 140 -47q28 0 60 10.5t52 40.5t20 75v42q-57 -63 -146 -63q-45 0 -91 20t-77.5 60.5t-43 82t-11.5 80.5q0 50 17.5 94.5t48 77t71.5 50.5t86 18q93 0 146 -58v47h123v-446q0 -50 -14.5 -96.5t-47 -79t-79.5 -50t-107 -17.5q-65 0 -119.5 17t-89.5 47z
M286 122q32 0 59 15t45.5 44.5t18.5 68.5t-18.5 68.5t-45.5 44.5t-59 15q-38 0 -69 -21.5t-43 -51.5t-12 -55t12 -55t43 -51.5t69 -21.5zM281 544q-29 0 -50 21t-21 50t21 50.5t50 21.5t50.5 -21.5t21.5 -50.5t-21 -50t-51 -21z" />
    <glyph glyph-name="Gcommaaccent" unicode="&#x122;" horiz-adv-x="683" 
d="M615 56q-93 -70 -242 -70q-68 0 -128.5 26t-105.5 72t-70 107.5t-25 128.5t25.5 128.5t71 108t106 72.5t126.5 26q149 0 237 -88l-83 -95q-67 58 -153 58q-30 0 -63 -11t-62.5 -37t-50.5 -67.5t-21 -94.5q0 -42 15.5 -80.5t43 -67t65.5 -45t81 -16.5q58 0 108 25v181h125
v-261zM434 -51l-57 -150h-95l32 150h120z" />
    <glyph glyph-name="gcommaaccent" unicode="&#x123;" horiz-adv-x="603" 
d="M137 -51q63 -47 140 -47q28 0 60 10.5t52 40.5t20 75v42q-57 -63 -146 -63q-45 0 -91 20t-77.5 60.5t-43 82t-11.5 80.5q0 50 17.5 94.5t48 77t71.5 50.5t86 18q93 0 146 -58v47h123v-446q0 -50 -14.5 -96.5t-47 -79t-79.5 -50t-107 -17.5q-65 0 -119.5 17t-89.5 47z
M286 122q32 0 59 15t45.5 44.5t18.5 68.5t-18.5 68.5t-45.5 44.5t-59 15q-38 0 -69 -21.5t-43 -51.5t-12 -55t12 -55t43 -51.5t69 -21.5zM212 538l57 150h96l-32 -150h-121z" />
    <glyph glyph-name="Hcircumflex" unicode="&#x124;" horiz-adv-x="709" 
d="M507 0v269h-305v-269h-125v641h125v-255h305v255h126v-641h-126zM300 850h111l118 -156h-116l-58 85l-58 -85h-116z" />
    <glyph glyph-name="hcircumflex" unicode="&#x125;" 
d="M194 272v-272h-122v688h122v-256q22 29 57 45t78 16q83 0 132.5 -55t49.5 -148v-290h-122v272q0 48 -26.5 77t-70.5 29q-45 0 -71.5 -29t-26.5 -77zM201 888h111l118 -156h-116l-58 85l-58 -85h-116z" />
    <glyph glyph-name="Hbar" unicode="&#x126;" horiz-adv-x="709" 
d="M202 386h305v88h-305v-88zM507 0v269h-305v-269h-125v474h-44v90h44v77h125v-77h305v77h126v-77h43v-90h-43v-474h-126z" />
    <glyph glyph-name="hbar" unicode="&#x127;" 
d="M194 272v-272h-122v542h-52v90h52v56h122v-56h123v-90h-123v-110q22 29 57 45t78 16q83 0 132.5 -55t49.5 -148v-290h-122v272q0 48 -26.5 77t-70.5 29q-45 0 -71.5 -29t-26.5 -77z" />
    <glyph glyph-name="Itilde" unicode="&#x128;" horiz-adv-x="278" 
d="M77 0v641h125v-641h-125zM217 702q-30 0 -73 23t-66 23q-31 0 -60 -49l-60 49q36 88 103 88q30 0 72.5 -23t65.5 -23q36 0 61 49l60 -50q-36 -87 -103 -87z" />
    <glyph glyph-name="itilde" unicode="&#x129;" horiz-adv-x="265" 
d="M194 479v-479h-122v479h122zM211 540q-30 0 -73 23t-66 23q-31 0 -60 -49l-60 49q36 88 103 88q30 0 72.5 -23t65.5 -23q36 0 61 49l60 -50q-36 -87 -103 -87z" />
    <glyph glyph-name="Imacron" unicode="&#x12a;" horiz-adv-x="278" 
d="M77 0v641h125v-641h-125zM-10 821h297v-90h-297v90z" />
    <glyph glyph-name="imacron" unicode="&#x12b;" horiz-adv-x="265" 
d="M194 479v-479h-122v479h122zM-16 659h297v-90h-297v90z" />
    <glyph glyph-name="Ibreve" unicode="&#x12c;" horiz-adv-x="278" 
d="M77 0v641h125v-641h-125zM139 684q-65 0 -108 45t-43 115h86q0 -38 18.5 -59t46.5 -21t46.5 21t18.5 59h87q0 -70 -43 -115t-109 -45z" />
    <glyph glyph-name="ibreve" unicode="&#x12d;" horiz-adv-x="265" 
d="M194 479v-479h-122v479h122zM133 522q-65 0 -108 45t-43 115h86q0 -38 18.5 -59t46.5 -21t46.5 21t18.5 59h87q0 -70 -43 -115t-109 -45z" />
    <glyph glyph-name="Iogonek" unicode="&#x12e;" horiz-adv-x="278" 
d="M208 -154q-17 -19 -45.5 -33t-63.5 -14q-26 0 -49.5 9t-40.5 29t-17 52q0 65 85 121v631h125v-641h-42q-39 -23 -58 -48t-19 -45q0 -15 10 -23t25 -8q27 0 54 21z" />
    <glyph glyph-name="iogonek" unicode="&#x12f;" horiz-adv-x="265" 
d="M194 479v-479h-47q-38 -23 -57 -48t-19 -45q0 -15 9.5 -23t24.5 -8q27 0 55 21l36 -51q-17 -19 -45.5 -33t-63.5 -14q-31 0 -58 13t-38 34.5t-11 42.5q0 69 92 126v464h122zM132 544q-29 0 -50 21t-21 50t21 50.5t50 21.5t50.5 -21.5t21.5 -50.5t-21 -50t-51 -21z" />
    <glyph glyph-name="Idotaccent" unicode="&#x130;" horiz-adv-x="278" 
d="M77 0v641h125v-641h-125zM138 706q-29 0 -50 21t-21 50t21 50.5t50 21.5t50.5 -21.5t21.5 -50.5t-21 -50t-51 -21z" />
    <glyph glyph-name="dotlessi" unicode="&#x131;" horiz-adv-x="265" 
d="M194 479v-479h-122v479h122z" />
    <glyph glyph-name="IJ" unicode="&#x132;" horiz-adv-x="744" 
d="M77 0v641h125v-641h-125zM294 72l85 86q16 -22 38 -34.5t46 -12.5q42 0 64 26.5t22 77.5v426h125v-420q0 -72 -24 -123.5t-70 -81.5t-113 -30q-56 0 -103 24.5t-70 61.5z" />
    <glyph glyph-name="ij" unicode="&#x133;" horiz-adv-x="531" 
d="M194 479v-479h-122v479h122zM132 544q-29 0 -50 21t-21 50t21 50.5t50 21.5t50.5 -21.5t21.5 -50.5t-21 -50t-51 -21zM397 687q29 0 50.5 -21.5t21.5 -50.5t-21 -50t-51 -21q-29 0 -50 21t-21 50t21 50.5t50 21.5zM459 479v-493q0 -90 -45.5 -143t-128.5 -53
q-37 0 -68.5 12t-51.5 31l57 90q26 -21 57 -21q26 0 42 20t16 57v500h122z" />
    <glyph glyph-name="Jcircumflex" unicode="&#x134;" horiz-adv-x="466" 
d="M16 72l85 86q16 -22 38 -34.5t46 -12.5q42 0 64 26.5t22 77.5v426h125v-420q0 -72 -24 -123.5t-70 -81.5t-113 -30q-56 0 -103 24.5t-70 61.5zM273 850h111l118 -156h-116l-58 85l-58 -85h-116z" />
    <glyph glyph-name="jcircumflex" unicode="&#x135;" horiz-adv-x="265" 
d="M194 479v-493q0 -90 -45.5 -143t-128.5 -53q-37 0 -68.5 12t-51.5 31l57 90q26 -21 57 -21q26 0 42 20t16 57v500h122zM78 688h111l118 -156h-116l-58 85l-58 -85h-116z" />
    <glyph glyph-name="Kcommaaccent" unicode="&#x136;" horiz-adv-x="617" 
d="M77 0v641h125v-264h61l181 264h141l-216 -315l231 -326h-152l-180 260h-66v-260h-125zM378 -51l-57 -150h-95l32 150h120z" />
    <glyph glyph-name="kcommaaccent" unicode="&#x137;" horiz-adv-x="562" 
d="M72 0v688h122v-382h58l123 173h149l-163 -222l177 -257h-153l-131 195h-60v-195h-122zM350 -51l-57 -150h-95l32 150h120z" />
    <glyph glyph-name="Lacute" unicode="&#x139;" horiz-adv-x="531" 
d="M77 0v641h125v-523h313v-118h-438zM185 850h144l-131 -156h-111z" />
    <glyph glyph-name="lacute" unicode="&#x13a;" horiz-adv-x="265" 
d="M72 0v688h122v-688h-122zM181 888h144l-131 -156h-111z" />
    <glyph glyph-name="Lcommaaccent" unicode="&#x13b;" horiz-adv-x="531" 
d="M77 0v641h125v-523h313v-118h-438zM354 -51l-57 -150h-95l32 150h120z" />
    <glyph glyph-name="lcommaaccent" unicode="&#x13c;" horiz-adv-x="265" 
d="M72 0v688h122v-688h-122zM196 -51l-57 -150h-95l32 150h120z" />
    <glyph glyph-name="Lcaron" unicode="&#x13d;" horiz-adv-x="531" 
d="M77 0v641h125v-523h313v-118h-438zM396 688l-41 -166h-89l20 166h110z" />
    <glyph glyph-name="lcaron" unicode="&#x13e;" horiz-adv-x="330" 
d="M72 0v688h122v-688h-122zM370 688l-41 -166h-89l20 166h110z" />
    <glyph glyph-name="Ldot" unicode="&#x13f;" horiz-adv-x="531" 
d="M77 0v641h125v-523h313v-118h-438zM403 270q-29 0 -50 21t-21 50t21 50.5t50 21.5t50.5 -21.5t21.5 -50.5t-21.5 -50t-50.5 -21z" />
    <glyph glyph-name="ldot" unicode="&#x140;" horiz-adv-x="354" 
d="M72 0v688h122v-688h-122zM310 228q-29 0 -50 21t-21 50t21 50.5t50 21.5t50.5 -21.5t21.5 -50.5t-21.5 -50t-50.5 -21z" />
    <glyph glyph-name="Lslash" unicode="&#x141;" horiz-adv-x="531" 
d="M77 0v269l-63 -20v104l63 20v268h125v-229l106 34v-103l-106 -34v-191h313v-118h-438z" />
    <glyph glyph-name="lslash" unicode="&#x142;" horiz-adv-x="265" 
d="M72 0v293l-58 -23v104l58 23v291h122v-243l57 22v-103l-57 -23v-341h-122z" />
    <glyph glyph-name="Nacute" unicode="&#x143;" horiz-adv-x="709" 
d="M499 0l-299 434v-434h-125v641h135l299 -439v439h125v-641h-135zM391 850h144l-131 -156h-111z" />
    <glyph glyph-name="nacute" unicode="&#x144;" 
d="M194 272v-272h-122v479h122v-47q22 29 57 45t78 16q83 0 132.5 -55t49.5 -148v-290h-122v272q0 48 -26.5 77t-70.5 29q-45 0 -71.5 -29t-26.5 -77zM328 688h144l-131 -156h-111z" />
    <glyph glyph-name="Ncommaaccent" unicode="&#x145;" horiz-adv-x="709" 
d="M499 0l-299 434v-434h-125v641h135l299 -439v439h125v-641h-135zM418 -51l-57 -150h-95l32 150h120z" />
    <glyph glyph-name="ncommaaccent" unicode="&#x146;" 
d="M194 272v-272h-122v479h122v-47q22 29 57 45t78 16q83 0 132.5 -55t49.5 -148v-290h-122v272q0 48 -26.5 77t-70.5 29q-45 0 -71.5 -29t-26.5 -77zM355 -51l-57 -150h-95l32 150h120z" />
    <glyph glyph-name="Ncaron" unicode="&#x147;" horiz-adv-x="709" 
d="M499 0l-299 434v-434h-125v641h135l299 -439v439h125v-641h-135zM411 694h-111l-119 156h116l58 -85l58 85h116z" />
    <glyph glyph-name="ncaron" unicode="&#x148;" 
d="M194 272v-272h-122v479h122v-47q22 29 57 45t78 16q83 0 132.5 -55t49.5 -148v-290h-122v272q0 48 -26.5 77t-70.5 29q-45 0 -71.5 -29t-26.5 -77zM348 532h-111l-119 156h116l58 -85l58 85h116z" />
    <glyph glyph-name="Omacron" unicode="&#x14c;" horiz-adv-x="751" 
d="M375 655q66 0 127 -26t107 -72.5t72 -108t26 -128.5t-26 -128.5t-72 -107.5t-107 -72t-127 -26t-127 26t-107 72t-71.5 107.5t-25.5 128.5t25.5 128.5t71.5 108t107 72.5t127 26zM375 111q30 0 63 11t67 40t51.5 72.5t17.5 85.5q0 31 -10.5 66.5t-38.5 71t-69 54
t-81 18.5q-29 0 -62.5 -11t-67 -40.5t-51 -73t-17.5 -85.5q0 -31 10.5 -66t38.5 -70.5t68.5 -54t80.5 -18.5zM226 821h297v-90h-297v90z" />
    <glyph glyph-name="omacron" unicode="&#x14d;" 
d="M289 -14q-50 0 -96 19.5t-80.5 55t-53.5 82t-19 96.5q0 51 19 97.5t53.5 81.5t80.5 55t96 20t102 -22.5t87 -65.5t48 -85.5t13 -80.5q0 -24 -6.5 -55.5t-23.5 -64t-47.5 -63t-76.5 -50.5t-96 -20zM290 101q26 0 55 13.5t50 48.5t21 77q0 58 -36 98t-90 40q-42 0 -73 -24
t-43 -55.5t-12 -58.5t12 -59t43 -56t73 -24zM140 659h297v-90h-297v90z" />
    <glyph glyph-name="Obreve" unicode="&#x14e;" horiz-adv-x="751" 
d="M375 655q66 0 127 -26t107 -72.5t72 -108t26 -128.5t-26 -128.5t-72 -107.5t-107 -72t-127 -26t-127 26t-107 72t-71.5 107.5t-25.5 128.5t25.5 128.5t71.5 108t107 72.5t127 26zM375 111q30 0 63 11t67 40t51.5 72.5t17.5 85.5q0 31 -10.5 66.5t-38.5 71t-69 54
t-81 18.5q-29 0 -62.5 -11t-67 -40.5t-51 -73t-17.5 -85.5q0 -31 10.5 -66t38.5 -70.5t68.5 -54t80.5 -18.5zM375 684q-65 0 -108 45t-43 115h86q0 -38 18.5 -59t46.5 -21t46.5 21t18.5 59h87q0 -70 -43 -115t-109 -45z" />
    <glyph glyph-name="obreve" unicode="&#x14f;" 
d="M289 -14q-50 0 -96 19.5t-80.5 55t-53.5 82t-19 96.5q0 51 19 97.5t53.5 81.5t80.5 55t96 20t102 -22.5t87 -65.5t48 -85.5t13 -80.5q0 -24 -6.5 -55.5t-23.5 -64t-47.5 -63t-76.5 -50.5t-96 -20zM290 101q26 0 55 13.5t50 48.5t21 77q0 58 -36 98t-90 40q-42 0 -73 -24
t-43 -55.5t-12 -58.5t12 -59t43 -56t73 -24zM289 522q-65 0 -108 45t-43 115h86q0 -38 18.5 -59t46.5 -21t46.5 21t18.5 59h87q0 -70 -43 -115t-109 -45z" />
    <glyph glyph-name="Ohungarumlaut" unicode="&#x150;" horiz-adv-x="751" 
d="M375 655q66 0 127 -26t107 -72.5t72 -108t26 -128.5t-26 -128.5t-72 -107.5t-107 -72t-127 -26t-127 26t-107 72t-71.5 107.5t-25.5 128.5t25.5 128.5t71.5 108t107 72.5t127 26zM375 111q30 0 63 11t67 40t51.5 72.5t17.5 85.5q0 31 -10.5 66.5t-38.5 71t-69 54
t-81 18.5q-29 0 -62.5 -11t-67 -40.5t-51 -73t-17.5 -85.5q0 -31 10.5 -66t38.5 -70.5t68.5 -54t80.5 -18.5zM327 850h120l-124 -156h-94zM504 850h127l-131 -156h-94z" />
    <glyph glyph-name="ohungarumlaut" unicode="&#x151;" 
d="M289 -14q-50 0 -96 19.5t-80.5 55t-53.5 82t-19 96.5q0 51 19 97.5t53.5 81.5t80.5 55t96 20t102 -22.5t87 -65.5t48 -85.5t13 -80.5q0 -24 -6.5 -55.5t-23.5 -64t-47.5 -63t-76.5 -50.5t-96 -20zM290 101q26 0 55 13.5t50 48.5t21 77q0 58 -36 98t-90 40q-42 0 -73 -24
t-43 -55.5t-12 -58.5t12 -59t43 -56t73 -24zM241 688h120l-124 -156h-94zM418 688h127l-131 -156h-94z" />
    <glyph glyph-name="OE" unicode="&#x152;" horiz-adv-x="1027" 
d="M375 111q30 0 63 11t67 40t51.5 72.5t17.5 85.5q0 31 -10.5 66.5t-38.5 71t-69 54t-81 18.5q-29 0 -62.5 -11t-67 -40.5t-51 -73t-17.5 -85.5q0 -31 10.5 -66t38.5 -70.5t68.5 -54t80.5 -18.5zM574 0v62q-40 -36 -91.5 -56t-107.5 -20q-66 0 -127 26t-107 72t-71.5 107.5
t-25.5 128.5t25.5 128.5t71.5 108t107 72.5t127 26q56 0 107.5 -20t91.5 -56v62h415v-117h-290v-142h250v-118h-250v-146h290v-118h-415z" />
    <glyph glyph-name="oe" unicode="&#x153;" horiz-adv-x="930" 
d="M289 -14q-50 0 -96 19.5t-80.5 55t-53.5 82t-19 96.5q0 51 19 97.5t53.5 81.5t80.5 55t96 20q55 0 104 -24t83 -65q32 41 78.5 65t99.5 24q50 0 94.5 -18.5t77.5 -52t51.5 -78.5t18.5 -95q0 -28 -3 -40h-355q4 -23 18.5 -50t45 -46t67.5 -19t69 13.5t54 36.5l63 -83
q-28 -32 -81 -53.5t-108 -21.5q-56 0 -105.5 24t-83.5 66q-33 -41 -82.5 -65.5t-105.5 -24.5zM290 101q26 0 55 13.5t50 48.5t21 77q0 58 -36 98t-90 40q-42 0 -73 -24t-43 -55.5t-12 -58.5t12 -59t43 -56t73 -24zM656 389q-43 0 -74 -28.5t-42 -74.5h231q-5 23 -18.5 48
t-39.5 40t-57 15z" />
    <glyph glyph-name="Racute" unicode="&#x154;" horiz-adv-x="613" 
d="M77 0v641h228q113 0 182 -55.5t69 -146.5q0 -48 -20.5 -87.5t-52.5 -62.5t-62 -34l149 -255h-145l-131 236h-92v-236h-125zM315 531h-113v-185h113q49 0 79 26t30 67q0 19 -10 41t-36.5 36.5t-62.5 14.5zM308 850h144l-131 -156h-111z" />
    <glyph glyph-name="racute" unicode="&#x155;" horiz-adv-x="406" 
d="M194 268v-268h-122v479h122v-52q21 31 51 48.5t66 17.5q22 0 42.5 -6.5t34.5 -17.5l-51 -116q-11 9 -29 15t-34 6q-36 0 -58 -29t-22 -77zM239 688h144l-131 -156h-111z" />
    <glyph glyph-name="Rcommaaccent" unicode="&#x156;" horiz-adv-x="613" 
d="M77 0v641h228q113 0 182 -55.5t69 -146.5q0 -48 -20.5 -87.5t-52.5 -62.5t-62 -34l149 -255h-145l-131 236h-92v-236h-125zM315 531h-113v-185h113q49 0 79 26t30 67q0 19 -10 41t-36.5 36.5t-62.5 14.5zM370 -51l-57 -150h-95l32 150h120z" />
    <glyph glyph-name="rcommaaccent" unicode="&#x157;" horiz-adv-x="406" 
d="M194 268v-268h-122v479h122v-52q21 31 51 48.5t66 17.5q22 0 42.5 -6.5t34.5 -17.5l-51 -116q-11 9 -29 15t-34 6q-36 0 -58 -29t-22 -77zM205 -51l-57 -150h-95l32 150h120z" />
    <glyph glyph-name="Rcaron" unicode="&#x158;" horiz-adv-x="613" 
d="M77 0v641h228q113 0 182 -55.5t69 -146.5q0 -48 -20.5 -87.5t-52.5 -62.5t-62 -34l149 -255h-145l-131 236h-92v-236h-125zM315 531h-113v-185h113q49 0 79 26t30 67q0 19 -10 41t-36.5 36.5t-62.5 14.5zM335 694h-111l-119 156h116l58 -85l58 85h116z" />
    <glyph glyph-name="rcaron" unicode="&#x159;" horiz-adv-x="406" 
d="M194 268v-268h-122v479h122v-52q21 31 51 48.5t66 17.5q22 0 42.5 -6.5t34.5 -17.5l-51 -116q-11 9 -29 15t-34 6q-36 0 -58 -29t-22 -77zM259 532h-111l-119 156h116l58 -85l58 85h116z" />
    <glyph glyph-name="Sacute" unicode="&#x15a;" horiz-adv-x="562" 
d="M521 547l-86 -85q-22 32 -63 53.5t-87 21.5q-44 0 -69.5 -18t-25.5 -46q0 -20 18 -39.5t108.5 -49t125.5 -52t52 -45t25 -47.5t8 -55q0 -87 -68 -143t-177 -56q-47 0 -95 11t-89 39t-66 65l89 83q29 -39 71 -59.5t92 -20.5q51 0 80 20t29 54q0 27 -23 47.5t-99.5 45.5
t-104 38.5t-46 28t-32 31.5t-23 41t-9.5 59q0 81 66 133.5t168 52.5q36 0 80.5 -10t85.5 -36.5t65 -61.5zM317 850h144l-131 -156h-111z" />
    <glyph glyph-name="sacute" unicode="&#x15b;" horiz-adv-x="460" 
d="M166 350q0 -7 3.5 -15t13 -15.5t23.5 -13t66.5 -21t75.5 -28t36.5 -25t22 -27.5t13 -32t4.5 -37q0 -22 -8.5 -47t-31 -48t-62 -39t-97.5 -16q-65 0 -117 22t-84 59l68 78q55 -61 140 -61q34 0 52.5 13.5t18.5 36.5q0 11 -7.5 22.5t-28.5 21t-76 27t-84.5 36.5t-45 45
t-15.5 64q0 20 8 43.5t28.5 45.5t57 38t90.5 16q63 0 113 -21t77 -58l-69 -72q-45 53 -118 53q-30 0 -48.5 -12.5t-18.5 -32.5zM266 688h144l-131 -156h-111z" />
    <glyph glyph-name="Scircumflex" unicode="&#x15c;" horiz-adv-x="562" 
d="M521 547l-86 -85q-22 32 -63 53.5t-87 21.5q-44 0 -69.5 -18t-25.5 -46q0 -20 18 -39.5t108.5 -49t125.5 -52t52 -45t25 -47.5t8 -55q0 -87 -68 -143t-177 -56q-47 0 -95 11t-89 39t-66 65l89 83q29 -39 71 -59.5t92 -20.5q51 0 80 20t29 54q0 27 -23 47.5t-99.5 45.5
t-104 38.5t-46 28t-32 31.5t-23 41t-9.5 59q0 81 66 133.5t168 52.5q36 0 80.5 -10t85.5 -36.5t65 -61.5zM226 850h111l118 -156h-116l-58 85l-58 -85h-116z" />
    <glyph glyph-name="scircumflex" unicode="&#x15d;" horiz-adv-x="460" 
d="M166 350q0 -7 3.5 -15t13 -15.5t23.5 -13t66.5 -21t75.5 -28t36.5 -25t22 -27.5t13 -32t4.5 -37q0 -22 -8.5 -47t-31 -48t-62 -39t-97.5 -16q-65 0 -117 22t-84 59l68 78q55 -61 140 -61q34 0 52.5 13.5t18.5 36.5q0 11 -7.5 22.5t-28.5 21t-76 27t-84.5 36.5t-45 45
t-15.5 64q0 20 8 43.5t28.5 45.5t57 38t90.5 16q63 0 113 -21t77 -58l-69 -72q-45 53 -118 53q-30 0 -48.5 -12.5t-18.5 -32.5zM175 688h111l118 -156h-116l-58 85l-58 -85h-116z" />
    <glyph glyph-name="Scedilla" unicode="&#x15e;" horiz-adv-x="562" 
d="M521 547l-86 -85q-22 32 -63 53.5t-87 21.5q-44 0 -69.5 -18t-25.5 -46q0 -20 18 -39.5t108.5 -49t125.5 -52t52 -45t25 -47.5t8 -55q0 -76 -53 -129.5t-142 -66.5l-65 -177l-99 40l78 135q-58 5 -103 24.5t-71 44t-40 45.5l89 83q29 -39 71 -59.5t92 -20.5q51 0 80 20
t29 54q0 27 -23 47.5t-99.5 45.5t-104 38.5t-46 28t-32 31.5t-23 41t-9.5 59q0 81 66 133.5t168 52.5q36 0 80.5 -10t85.5 -36.5t65 -61.5z" />
    <glyph glyph-name="scedilla" unicode="&#x15f;" horiz-adv-x="460" 
d="M166 350q0 -7 3.5 -15t13 -15.5t23.5 -13t66.5 -21t75.5 -28t36.5 -25t22 -27.5t13 -32t4.5 -37q0 -39 -22.5 -73t-57.5 -51t-70 -22l-66 -178l-99 40l78 136q-52 6 -94 27t-69 52l68 78q55 -61 140 -61q34 0 52.5 13.5t18.5 36.5q0 11 -7.5 22.5t-28.5 21t-76 27
t-84.5 36.5t-45 45t-15.5 64q0 20 8 43.5t28.5 45.5t57 38t90.5 16q63 0 113 -21t77 -58l-69 -72q-45 53 -118 53q-30 0 -48.5 -12.5t-18.5 -32.5z" />
    <glyph glyph-name="Scaron" unicode="&#x160;" horiz-adv-x="562" 
d="M521 547l-86 -85q-22 32 -63 53.5t-87 21.5q-44 0 -69.5 -18t-25.5 -46q0 -20 18 -39.5t108.5 -49t125.5 -52t52 -45t25 -47.5t8 -55q0 -87 -68 -143t-177 -56q-47 0 -95 11t-89 39t-66 65l89 83q29 -39 71 -59.5t92 -20.5q51 0 80 20t29 54q0 27 -23 47.5t-99.5 45.5
t-104 38.5t-46 28t-32 31.5t-23 41t-9.5 59q0 81 66 133.5t168 52.5q36 0 80.5 -10t85.5 -36.5t65 -61.5zM337 694h-111l-119 156h116l58 -85l58 85h116z" />
    <glyph glyph-name="scaron" unicode="&#x161;" horiz-adv-x="460" 
d="M166 350q0 -7 3.5 -15t13 -15.5t23.5 -13t66.5 -21t75.5 -28t36.5 -25t22 -27.5t13 -32t4.5 -37q0 -22 -8.5 -47t-31 -48t-62 -39t-97.5 -16q-65 0 -117 22t-84 59l68 78q55 -61 140 -61q34 0 52.5 13.5t18.5 36.5q0 11 -7.5 22.5t-28.5 21t-76 27t-84.5 36.5t-45 45
t-15.5 64q0 20 8 43.5t28.5 45.5t57 38t90.5 16q63 0 113 -21t77 -58l-69 -72q-45 53 -118 53q-30 0 -48.5 -12.5t-18.5 -32.5zM286 532h-111l-119 156h116l58 -85l58 85h116z" />
    <glyph glyph-name="Tcommaaccent" unicode="&#x162;" horiz-adv-x="532" 
d="M519 524h-191v-524h-23l-69 -188l-99 40l85 148h-19v524h-190v117h506v-117z" />
    <glyph glyph-name="tcommaaccent" unicode="&#x163;" horiz-adv-x="412" 
d="M22 371v108h85v124h122v-124h130v-108h-129v-203q0 -67 55 -67q15 0 31 7t25 17l55 -91q-18 -18 -46 -30.5t-62 -16.5l-65 -175l-99 40l82 143q-47 16 -73.5 59.5t-26.5 109.5v207h-84z" />
    <glyph glyph-name="Tcaron" unicode="&#x164;" horiz-adv-x="532" 
d="M519 524h-191v-524h-125v524h-190v117h506v-117zM322 694h-111l-119 156h116l58 -85l58 85h116z" />
    <glyph glyph-name="tcaron" unicode="&#x165;" horiz-adv-x="412" 
d="M22 371v108h85v124h122v-124h130v-108h-129v-203q0 -67 55 -67q15 0 31 7t25 17l55 -91q-22 -21 -56 -34.5t-75 -13.5q-74 0 -116.5 46t-42.5 132v207h-84zM394 688l-41 -166h-89l20 166h110z" />
    <glyph glyph-name="Tbar" unicode="&#x166;" horiz-adv-x="532" 
d="M519 524h-191v-178h92v-90h-92v-256h-125v256h-92v90h92v178h-190v117h506v-117z" />
    <glyph glyph-name="tbar" unicode="&#x167;" horiz-adv-x="412" 
d="M22 371v108h85v124h122v-124h130v-108h-129v-76h101v-89h-101v-38q0 -67 55 -67q15 0 31 7t25 17l55 -91q-22 -21 -56 -34.5t-75 -13.5q-74 0 -116.5 46t-42.5 132v42h-60v89h60v76h-84z" />
    <glyph glyph-name="Utilde" unicode="&#x168;" horiz-adv-x="664" 
d="M70 261v380h125v-378q0 -68 38 -110t100 -42q61 0 98.5 41.5t37.5 109.5v379h125v-380q0 -60 -19 -111.5t-53.5 -88t-83.5 -56t-107 -19.5q-42 0 -87.5 13t-83.5 45.5t-58 74t-26 77.5t-6 65zM410 702q-30 0 -73 23t-66 23q-31 0 -60 -49l-60 49q36 88 103 88
q30 0 72.5 -23t65.5 -23q36 0 61 49l60 -50q-36 -87 -103 -87z" />
    <glyph glyph-name="utilde" unicode="&#x169;" 
d="M187 479v-259q0 -24 9.5 -52t34.5 -46.5t58 -18.5t58 18.5t34.5 46.5t9.5 52v259h122v-268q0 -100 -61.5 -161.5t-162.5 -61.5t-162.5 61.5t-61.5 161.5v268h122zM367 540q-30 0 -73 23t-66 23q-31 0 -60 -49l-60 49q36 88 103 88q30 0 72.5 -23t65.5 -23q36 0 61 49
l60 -50q-36 -87 -103 -87z" />
    <glyph glyph-name="Umacron" unicode="&#x16a;" horiz-adv-x="664" 
d="M70 261v380h125v-378q0 -68 38 -110t100 -42q61 0 98.5 41.5t37.5 109.5v379h125v-380q0 -60 -19 -111.5t-53.5 -88t-83.5 -56t-107 -19.5q-42 0 -87.5 13t-83.5 45.5t-58 74t-26 77.5t-6 65zM183 821h297v-90h-297v90z" />
    <glyph glyph-name="umacron" unicode="&#x16b;" 
d="M187 479v-259q0 -24 9.5 -52t34.5 -46.5t58 -18.5t58 18.5t34.5 46.5t9.5 52v259h122v-268q0 -100 -61.5 -161.5t-162.5 -61.5t-162.5 61.5t-61.5 161.5v268h122zM140 659h297v-90h-297v90z" />
    <glyph glyph-name="Ubreve" unicode="&#x16c;" horiz-adv-x="664" 
d="M70 261v380h125v-378q0 -68 38 -110t100 -42q61 0 98.5 41.5t37.5 109.5v379h125v-380q0 -60 -19 -111.5t-53.5 -88t-83.5 -56t-107 -19.5q-42 0 -87.5 13t-83.5 45.5t-58 74t-26 77.5t-6 65zM332 684q-65 0 -108 45t-43 115h86q0 -38 18.5 -59t46.5 -21t46.5 21t18.5 59
h87q0 -70 -43 -115t-109 -45z" />
    <glyph glyph-name="ubreve" unicode="&#x16d;" 
d="M187 479v-259q0 -24 9.5 -52t34.5 -46.5t58 -18.5t58 18.5t34.5 46.5t9.5 52v259h122v-268q0 -100 -61.5 -161.5t-162.5 -61.5t-162.5 61.5t-61.5 161.5v268h122zM289 522q-65 0 -108 45t-43 115h86q0 -38 18.5 -59t46.5 -21t46.5 21t18.5 59h87q0 -70 -43 -115t-109 -45
z" />
    <glyph glyph-name="Uring" unicode="&#x16e;" horiz-adv-x="664" 
d="M70 261v380h125v-378q0 -68 38 -110t100 -42q61 0 98.5 41.5t37.5 109.5v379h125v-380q0 -60 -19 -111.5t-53.5 -88t-83.5 -56t-107 -19.5q-42 0 -87.5 13t-83.5 45.5t-58 74t-26 77.5t-6 65zM332 684q-50 0 -85 34t-35 82t35 82t85 34t85 -34t35 -82t-35 -82t-85 -34z
M333 747q21 0 36.5 15.5t15.5 37.5t-15.5 37.5t-36.5 15.5t-36.5 -15.5t-15.5 -37.5t15.5 -37.5t36.5 -15.5z" />
    <glyph glyph-name="uring" unicode="&#x16f;" 
d="M187 479v-259q0 -24 9.5 -52t34.5 -46.5t58 -18.5t58 18.5t34.5 46.5t9.5 52v259h122v-268q0 -100 -61.5 -161.5t-162.5 -61.5t-162.5 61.5t-61.5 161.5v268h122zM289 522q-50 0 -85 34t-35 82t35 82t85 34t85 -34t35 -82t-35 -82t-85 -34zM290 585q21 0 36.5 15.5
t15.5 37.5t-15.5 37.5t-36.5 15.5t-36.5 -15.5t-15.5 -37.5t15.5 -37.5t36.5 -15.5z" />
    <glyph glyph-name="Uhungarumlaut" unicode="&#x170;" horiz-adv-x="664" 
d="M70 261v380h125v-378q0 -68 38 -110t100 -42q61 0 98.5 41.5t37.5 109.5v379h125v-380q0 -60 -19 -111.5t-53.5 -88t-83.5 -56t-107 -19.5q-42 0 -87.5 13t-83.5 45.5t-58 74t-26 77.5t-6 65zM284 850h120l-124 -156h-94zM461 850h127l-131 -156h-94z" />
    <glyph glyph-name="uhungarumlaut" unicode="&#x171;" 
d="M187 479v-259q0 -24 9.5 -52t34.5 -46.5t58 -18.5t58 18.5t34.5 46.5t9.5 52v259h122v-268q0 -100 -61.5 -161.5t-162.5 -61.5t-162.5 61.5t-61.5 161.5v268h122zM241 688h120l-124 -156h-94zM418 688h127l-131 -156h-94z" />
    <glyph glyph-name="Uogonek" unicode="&#x172;" horiz-adv-x="664" 
d="M70 261v380h125v-378q0 -68 38 -110t100 -42q61 0 98.5 41.5t37.5 109.5v379h125v-380q0 -100 -49.5 -171t-133.5 -94q-37 -22 -55 -46t-18 -43q0 -15 9.5 -23t24.5 -8q28 0 55 21l36 -51q-17 -19 -45.5 -33t-63.5 -14q-26 0 -49.5 9t-40.5 29t-17 52q0 53 54 98
q-38 4 -78 19.5t-78 52.5t-56.5 91.5t-18.5 110.5z" />
    <glyph glyph-name="uogonek" unicode="&#x173;" 
d="M187 479v-259q0 -24 9.5 -52t34.5 -46.5t58 -18.5t58 18.5t34.5 46.5t9.5 52v259h122v-268q0 -79 -40 -136t-109 -77q-38 -22 -57 -46.5t-19 -44.5q0 -16 10.5 -23.5t23.5 -7.5q28 0 55 21l36 -51q-17 -19 -45.5 -33t-63.5 -14q-26 0 -49.5 9t-40.5 29t-17 52
q0 54 57 101q-31 4 -64 17t-60.5 39.5t-46 67.5t-18.5 97v268h122z" />
    <glyph glyph-name="Wcircumflex" unicode="&#x174;" horiz-adv-x="1017" 
d="M860 641h131l-203 -641h-156l-126 486l-126 -486h-151l-203 641h138l141 -496l128 496h157l129 -496zM453 850h111l118 -156h-116l-58 85l-58 -85h-116z" />
    <glyph glyph-name="wcircumflex" unicode="&#x175;" horiz-adv-x="814" 
d="M661 479h131l-148 -479h-152l-93 325l-90 -325h-139l-147 479h130l89 -345l97 345h133l99 -347zM352 688h111l118 -156h-116l-58 85l-58 -85h-116z" />
    <glyph glyph-name="Ycircumflex" unicode="&#x176;" horiz-adv-x="623" 
d="M249 0v213l-236 428h139l162 -296l164 296h132l-236 -428v-213h-125zM257 850h111l118 -156h-116l-58 85l-58 -85h-116z" />
    <glyph glyph-name="ycircumflex" unicode="&#x177;" horiz-adv-x="537" 
d="M144 479l139 -330l115 330h123l-196 -540q-53 -149 -178 -149q-36 0 -71.5 14.5t-59.5 36.5l55 96q16 -15 37 -23.5t40 -8.5q25 0 43 17.5t33 58.5l4 12l-219 486h135zM214 688h111l118 -156h-116l-58 85l-58 -85h-116z" />
    <glyph glyph-name="Ydieresis" unicode="&#x178;" horiz-adv-x="623" 
d="M249 0v213l-236 428h139l162 -296l164 296h132l-236 -428v-213h-125zM220 706q-26 0 -45 19t-19 46t19 46.5t45 19.5q27 0 46.5 -19.5t19.5 -46.5q0 -26 -19.5 -45.5t-46.5 -19.5zM402 706q-26 0 -45 19t-19 46t19 46.5t45 19.5q27 0 46.5 -19.5t19.5 -46.5
q0 -26 -19.5 -45.5t-46.5 -19.5z" />
    <glyph glyph-name="Zacute" unicode="&#x179;" horiz-adv-x="575" 
d="M40 118l326 406h-319v117h481v-117l-327 -406h334v-118h-495v118zM323 850h144l-131 -156h-111z" />
    <glyph glyph-name="zacute" unicode="&#x17a;" horiz-adv-x="485" 
d="M41 108l237 263h-228v108h387v-108l-238 -263h245v-108h-403v108zM279 688h144l-131 -156h-111z" />
    <glyph glyph-name="Zdotaccent" unicode="&#x17b;" horiz-adv-x="575" 
d="M40 118l326 406h-319v117h481v-117l-327 -406h334v-118h-495v118zM286 706q-29 0 -50 21t-21 50t21 50.5t50 21.5t50.5 -21.5t21.5 -50.5t-21 -50t-51 -21z" />
    <glyph glyph-name="zdotaccent" unicode="&#x17c;" horiz-adv-x="485" 
d="M41 108l237 263h-228v108h387v-108l-238 -263h245v-108h-403v108zM242 544q-29 0 -50 21t-21 50t21 50.5t50 21.5t50.5 -21.5t21.5 -50.5t-21 -50t-51 -21z" />
    <glyph glyph-name="Zcaron" unicode="&#x17d;" horiz-adv-x="575" 
d="M40 118l326 406h-319v117h481v-117l-327 -406h334v-118h-495v118zM343 694h-111l-119 156h116l58 -85l58 85h116z" />
    <glyph glyph-name="zcaron" unicode="&#x17e;" horiz-adv-x="485" 
d="M41 108l237 263h-228v108h387v-108l-238 -263h245v-108h-403v108zM299 532h-111l-119 156h116l58 -85l58 85h116z" />
    <glyph glyph-name="florin" unicode="&#x192;" horiz-adv-x="511" 
d="M103 268v93h82v146q0 91 47.5 143t128.5 52q90 0 137 -50l-59 -92q-11 11 -30 19t-36 8q-31 0 -48.5 -20.5t-17.5 -58.5v-147h128v-93h-128v-254q0 -90 -45.5 -143t-128.5 -53q-37 0 -68.5 12t-51.5 31l58 90q25 -21 57 -21q25 0 41 20.5t16 57.5v260h-82z" />
    <glyph glyph-name="Scommaaccent" unicode="&#x218;" horiz-adv-x="562" 
d="M521 547l-86 -85q-22 32 -63 53.5t-87 21.5q-44 0 -69.5 -18t-25.5 -46q0 -20 18 -39.5t108.5 -49t125.5 -52t52 -45t25 -47.5t8 -55q0 -87 -68 -143t-177 -56q-47 0 -95 11t-89 39t-66 65l89 83q29 -39 71 -59.5t92 -20.5q51 0 80 20t29 54q0 27 -23 47.5t-99.5 45.5
t-104 38.5t-46 28t-32 31.5t-23 41t-9.5 59q0 81 66 133.5t168 52.5q36 0 80.5 -10t85.5 -36.5t65 -61.5zM344 -51l-57 -150h-95l32 150h120z" />
    <glyph glyph-name="scommaaccent" unicode="&#x219;" horiz-adv-x="460" 
d="M166 350q0 -7 3.5 -15t13 -15.5t23.5 -13t66.5 -21t75.5 -28t36.5 -25t22 -27.5t13 -32t4.5 -37q0 -22 -8.5 -47t-31 -48t-62 -39t-97.5 -16q-65 0 -117 22t-84 59l68 78q55 -61 140 -61q34 0 52.5 13.5t18.5 36.5q0 11 -7.5 22.5t-28.5 21t-76 27t-84.5 36.5t-45 45
t-15.5 64q0 20 8 43.5t28.5 45.5t57 38t90.5 16q63 0 113 -21t77 -58l-69 -72q-45 53 -118 53q-30 0 -48.5 -12.5t-18.5 -32.5zM293 -51l-57 -150h-95l32 150h120z" />
    <glyph glyph-name="uni021A" unicode="&#x21a;" horiz-adv-x="532" 
d="M519 524h-191v-524h-125v524h-190v117h506v-117zM329 -51l-57 -150h-95l32 150h120z" />
    <glyph glyph-name="uni021B" unicode="&#x21b;" horiz-adv-x="412" 
d="M22 371v108h85v124h122v-124h130v-108h-129v-203q0 -67 55 -67q15 0 31 7t25 17l55 -91q-22 -21 -56 -34.5t-75 -13.5q-74 0 -116.5 46t-42.5 132v207h-84zM269 -51l-57 -150h-95l32 150h120z" />
    <glyph glyph-name="uni0237" unicode="&#x237;" horiz-adv-x="265" 
d="M194 479v-493q0 -90 -45.5 -143t-128.5 -53q-37 0 -68.5 12t-51.5 31l57 90q26 -21 57 -21q26 0 42 20t16 57v500h122z" />
    <glyph glyph-name="circumflex" unicode="&#x2c6;" horiz-adv-x="400" 
d="M145 688h111l118 -156h-116l-58 85l-58 -85h-116z" />
    <glyph glyph-name="caron" unicode="&#x2c7;" horiz-adv-x="400" 
d="M256 532h-111l-119 156h116l58 -85l58 85h116z" />
    <glyph glyph-name="breve" unicode="&#x2d8;" horiz-adv-x="400" 
d="M200 522q-65 0 -108 45t-43 115h86q0 -38 18.5 -59t46.5 -21t46.5 21t18.5 59h87q0 -70 -43 -115t-109 -45z" />
    <glyph glyph-name="dotaccent" unicode="&#x2d9;" horiz-adv-x="400" 
d="M199 544q-29 0 -50 21t-21 50t21 50.5t50 21.5t50.5 -21.5t21.5 -50.5t-21 -50t-51 -21z" />
    <glyph glyph-name="ring" unicode="&#x2da;" horiz-adv-x="400" 
d="M200 522q-50 0 -85 34t-35 82t35 82t85 34t85 -34t35 -82t-35 -82t-85 -34zM201 585q21 0 36.5 15.5t15.5 37.5t-15.5 37.5t-36.5 15.5t-36.5 -15.5t-15.5 -37.5t15.5 -37.5t36.5 -15.5z" />
    <glyph glyph-name="ogonek" unicode="&#x2db;" horiz-adv-x="400" 
d="M221 40l61 -24q-27 -12 -53.5 -31t-41 -40t-14.5 -38q0 -15 9.5 -23t24.5 -8q27 0 55 21l36 -51q-17 -19 -45.5 -33t-63.5 -14q-31 0 -58 13t-38 34.5t-11 42.5q0 84 139 151z" />
    <glyph glyph-name="tilde" unicode="&#x2dc;" horiz-adv-x="400" 
d="M278 540q-30 0 -73 23t-66 23q-31 0 -60 -49l-60 49q36 88 103 88q30 0 72.5 -23t65.5 -23q36 0 61 49l60 -50q-36 -87 -103 -87z" />
    <glyph glyph-name="hungarumlaut" unicode="&#x2dd;" horiz-adv-x="400" 
d="M152 688h120l-124 -156h-94zM329 688h127l-131 -156h-94z" />
    <glyph glyph-name="uni0326" unicode="&#x326;" horiz-adv-x="400" 
d="M263 -51l-57 -150h-95l32 150h120z" />
    <glyph glyph-name="pi" unicode="&#x3c0;" horiz-adv-x="619" 
d="M33 371v108h550v-108h-78v-206q0 -61 47 -61h31v-104h-51q-71 0 -111 39t-40 122v210h-151v-370h-124v370h-73z" />
    <glyph glyph-name="Wgrave" unicode="&#x1e80;" horiz-adv-x="1017" 
d="M860 641h131l-203 -641h-156l-126 486l-126 -486h-151l-203 641h138l141 -496l128 496h157l129 -496zM472 850l98 -156h-111l-131 156h144z" />
    <glyph glyph-name="wgrave" unicode="&#x1e81;" horiz-adv-x="814" 
d="M661 479h131l-148 -479h-152l-93 325l-90 -325h-139l-147 479h130l89 -345l97 345h133l99 -347zM371 688l98 -156h-111l-131 156h144z" />
    <glyph glyph-name="Wacute" unicode="&#x1e82;" horiz-adv-x="1017" 
d="M860 641h131l-203 -641h-156l-126 486l-126 -486h-151l-203 641h138l141 -496l128 496h157l129 -496zM544 850h144l-131 -156h-111z" />
    <glyph glyph-name="wacute" unicode="&#x1e83;" horiz-adv-x="814" 
d="M661 479h131l-148 -479h-152l-93 325l-90 -325h-139l-147 479h130l89 -345l97 345h133l99 -347zM443 688h144l-131 -156h-111z" />
    <glyph glyph-name="Wdieresis" unicode="&#x1e84;" horiz-adv-x="1017" 
d="M860 641h131l-203 -641h-156l-126 486l-126 -486h-151l-203 641h138l141 -496l128 496h157l129 -496zM416 706q-26 0 -45 19t-19 46t19 46.5t45 19.5q27 0 46.5 -19.5t19.5 -46.5q0 -26 -19.5 -45.5t-46.5 -19.5zM598 706q-26 0 -45 19t-19 46t19 46.5t45 19.5
q27 0 46.5 -19.5t19.5 -46.5q0 -26 -19.5 -45.5t-46.5 -19.5z" />
    <glyph glyph-name="wdieresis" unicode="&#x1e85;" horiz-adv-x="814" 
d="M661 479h131l-148 -479h-152l-93 325l-90 -325h-139l-147 479h130l89 -345l97 345h133l99 -347zM315 544q-26 0 -45 19t-19 46t19 46.5t45 19.5q27 0 46.5 -19.5t19.5 -46.5q0 -26 -19.5 -45.5t-46.5 -19.5zM497 544q-26 0 -45 19t-19 46t19 46.5t45 19.5
q27 0 46.5 -19.5t19.5 -46.5q0 -26 -19.5 -45.5t-46.5 -19.5z" />
    <glyph glyph-name="Ygrave" unicode="&#x1ef2;" horiz-adv-x="623" 
d="M249 0v213l-236 428h139l162 -296l164 296h132l-236 -428v-213h-125zM276 850l98 -156h-111l-131 156h144z" />
    <glyph glyph-name="ygrave" unicode="&#x1ef3;" horiz-adv-x="537" 
d="M144 479l139 -330l115 330h123l-196 -540q-53 -149 -178 -149q-36 0 -71.5 14.5t-59.5 36.5l55 96q16 -15 37 -23.5t40 -8.5q25 0 43 17.5t33 58.5l4 12l-219 486h135zM233 688l98 -156h-111l-131 156h144z" />
    <glyph glyph-name="endash" unicode="&#x2013;" horiz-adv-x="500" 
d="M40 298h420v-104h-420v104z" />
    <glyph glyph-name="emdash" unicode="&#x2014;" horiz-adv-x="1000" 
d="M40 298h920v-104h-920v104z" />
    <glyph glyph-name="quoteleft" unicode="&#x2018;" horiz-adv-x="221" 
d="M31 469l56 219h89l-27 -219h-118z" />
    <glyph glyph-name="quoteright" unicode="&#x2019;" horiz-adv-x="221" 
d="M190 688l-56 -219h-89l27 219h118z" />
    <glyph glyph-name="quotesinglbase" unicode="&#x201a;" horiz-adv-x="221" 
d="M190 100l-56 -219h-89l27 219h118z" />
    <glyph glyph-name="quotedblleft" unicode="&#x201c;" horiz-adv-x="397" 
d="M207 469l56 219h89l-27 -219h-118zM31 469l56 219h89l-27 -219h-118z" />
    <glyph glyph-name="quotedblright" unicode="&#x201d;" horiz-adv-x="397" 
d="M190 688l-56 -219h-89l27 219h118zM366 688l-56 -219h-89l27 219h118z" />
    <glyph glyph-name="quotedblbase" unicode="&#x201e;" horiz-adv-x="397" 
d="M190 100l-56 -219h-89l27 219h118zM366 100l-56 -219h-89l27 219h118z" />
    <glyph glyph-name="dagger" unicode="&#x2020;" horiz-adv-x="494" 
d="M186 -196v575h-153v108h153v201h122v-201h153v-108h-153v-575h-122z" />
    <glyph glyph-name="daggerdbl" unicode="&#x2021;" horiz-adv-x="494" 
d="M186 -196v201h-153v108h153v266h-153v108h153v201h122v-201h153v-108h-153v-266h153v-108h-153v-201h-122z" />
    <glyph glyph-name="bullet" unicode="&#x2022;" horiz-adv-x="417" 
d="M209 107q-59 0 -101 42.5t-42 100.5t42 100.5t101 42.5q58 0 100 -42.5t42 -100.5t-42 -100.5t-100 -42.5z" />
    <glyph glyph-name="ellipsis" unicode="&#x2026;" horiz-adv-x="741" 
d="M114 -12q-32 0 -55.5 23.5t-23.5 55.5q0 33 23.5 56.5t55.5 23.5t56 -24t24 -56t-23.5 -55.5t-56.5 -23.5zM370 -12q-32 0 -55.5 23.5t-23.5 55.5t23.5 56t55.5 24t56 -24t24 -56t-23.5 -55.5t-56.5 -23.5zM627 -12q-32 0 -55.5 23.5t-23.5 55.5q0 33 23.5 56.5
t55.5 23.5t55.5 -24t23.5 -56t-23.5 -55.5t-55.5 -23.5z" />
    <glyph glyph-name="perthousand" unicode="&#x2030;" horiz-adv-x="958" 
d="M150 314q-59 0 -97.5 47t-38.5 119q0 73 37.5 121t94.5 48q29 0 60.5 -16t54 -57.5t21.5 -94.5q0 -26 -6 -54.5t-22 -53.5t-42.5 -42t-61.5 -17zM148 388q25 0 39.5 25t14.5 67q0 43 -14.5 68.5t-39.5 25.5q-24 0 -39 -26t-15 -67q0 -31 8 -54t21 -31t25 -8zM68 0
l431 641h95l-430 -641h-96zM516 -7q-59 0 -97.5 47t-38.5 119q0 73 37.5 121t94.5 48q29 0 60.5 -16t54 -57.5t21.5 -94.5q0 -26 -6 -54.5t-22 -53.5t-42.5 -42t-61.5 -17zM514 67q25 0 39.5 25t14.5 67q0 43 -14.5 68.5t-39.5 25.5q-24 0 -39 -26t-15 -67q0 -31 8 -54
t21 -31t25 -8zM812 -7q-59 0 -97.5 47t-38.5 119q0 73 37.5 121t94.5 48q29 0 60.5 -16t54 -57.5t21.5 -94.5q0 -26 -6 -54.5t-22 -53.5t-42.5 -42t-61.5 -17zM810 67q25 0 39.5 25t14.5 67q0 43 -14.5 68.5t-39.5 25.5q-24 0 -39 -26t-15 -67q0 -31 8 -54t21 -31t25 -8z
" />
    <glyph glyph-name="guilsinglleft" unicode="&#x2039;" horiz-adv-x="324" 
d="M46 248l157 197l75 -62l-111 -135l111 -135l-75 -62z" />
    <glyph glyph-name="guilsinglright" unicode="&#x203a;" horiz-adv-x="324" 
d="M278 248l-157 -197l-75 62l111 135l-111 135l75 62z" />
    <glyph glyph-name="fraction" unicode="&#x2044;" horiz-adv-x="70" 
d="M-228 0l431 641h95l-430 -641h-96z" />
    <glyph glyph-name="uni2070" unicode="&#x2070;" horiz-adv-x="296" 
d="M150 314q-59 0 -97.5 47t-38.5 119q0 73 37.5 121t94.5 48q29 0 60.5 -16t54 -57.5t21.5 -94.5q0 -26 -6 -54.5t-22 -53.5t-42.5 -42t-61.5 -17zM148 388q25 0 39.5 25t14.5 67q0 43 -14.5 68.5t-39.5 25.5q-24 0 -39 -26t-15 -67q0 -31 8 -54t21 -31t25 -8z" />
    <glyph glyph-name="uni2074" unicode="&#x2074;" horiz-adv-x="296" 
d="M164 321v50h-153v73l151 197h80v-197h41v-73h-41v-50h-78zM164 444v117l-89 -117h89z" />
    <glyph glyph-name="Euro" unicode="&#x20ac;" horiz-adv-x="657" 
d="M634 567l-75 -87q-29 26 -70 41.5t-87 15.5q-54 0 -100 -28.5t-72 -75.5h234l-24 -82h-237l-2 -31l2 -35h224l-24 -82h-172q26 -45 71.5 -72t101.5 -27q46 0 87 15t67 43l76 -85q-84 -91 -233 -91q-39 0 -83 10.5t-86 36.5t-79 68.5t-58 101.5h-82l24 82h40l-2 35l1 31
h-63l24 82h57q12 35 36 73t67 75t97.5 55.5t105.5 18.5q146 0 234 -88z" />
    <glyph glyph-name="afii61289" unicode="&#x2113;" horiz-adv-x="486" 
d="M410 51q-25 -30 -62.5 -47.5t-83.5 -17.5q-72 0 -116 42.5t-48 122.5l-64 -29v126l64 26v227q0 93 45 147t121 54q84 0 130.5 -51t46.5 -143q0 -85 -57 -161t-162 -137v-35q0 -35 15.5 -54.5t44.5 -19.5q21 0 39.5 10.5t30.5 28.5zM224 515v-180q48 37 75 84t27 95
q0 35 -13.5 54t-36.5 19q-52 0 -52 -72z" />
    <glyph glyph-name="trademark" unicode="&#x2122;" horiz-adv-x="871" 
d="M129 291v272h-100v78h294v-78h-106v-272h-88zM585 363l-127 161l3 -233h-86v350h87l126 -162l125 162h82v-350h-87l4 233z" />
    <glyph glyph-name="uni2126" unicode="&#x2126;" horiz-adv-x="731" 
d="M365 530q-51 0 -98.5 -25t-73 -72.5t-25.5 -100.5q0 -48 18.5 -88.5t53 -75.5t77.5 -59v-109h-274v111l120 -2q-62 47 -95 110t-33 134q0 43 17 93t58 96t90.5 71.5t91 33.5t73.5 8q67 0 128 -24.5t106.5 -66.5t71 -97.5t25.5 -113.5q0 -71 -33 -134t-95 -110l120 2v-111
h-275v109q44 23 81.5 62t53 81t15.5 80q0 31 -10 65t-34.5 63.5t-63.5 49.5t-90 20z" />
    <glyph glyph-name="partialdiff" unicode="&#x2202;" 
d="M290 101q54 0 90 42t36 102q0 44 -21 80t-50 49.5t-55 13.5q-42 0 -73 -24.5t-43 -57.5t-12 -61t12 -61t43 -58t73 -25zM289 493q39 0 72 -20q-19 29 -51 62.5t-72 62t-73 44.5l83 76q62 -30 115.5 -76.5t93 -104.5t61 -125t21.5 -135q0 -65 -18 -119t-51.5 -92.5
t-79.5 -59t-101 -20.5q-50 0 -96 20t-80.5 56t-53.5 83t-19 99t19 98t53.5 80t80 52.5t96.5 18.5z" />
    <glyph glyph-name="uni2206" unicode="&#x2206;" horiz-adv-x="694" 
d="M16 0l258 641h146l258 -641h-662zM498 111l-155 398l-155 -398h310z" />
    <glyph glyph-name="product" unicode="&#x220f;" horiz-adv-x="637" 
d="M406 524h-175v-720h-125v720h-73v117h571v-117h-73v-720h-125v720z" />
    <glyph glyph-name="summation" unicode="&#x2211;" horiz-adv-x="502" 
d="M378 299v-100l-208 -270h319v-125h-476v143l237 310l-237 304v127h476v-124h-318z" />
    <glyph glyph-name="minus" unicode="&#x2212;" horiz-adv-x="521" 
d="M45 266v111h431v-111h-431z" />
    <glyph glyph-name="uni2215" unicode="&#x2215;" horiz-adv-x="70" 
d="M-228 0l431 641h95l-430 -641h-96z" />
    <glyph glyph-name="radical" unicode="&#x221a;" horiz-adv-x="592" 
d="M381 0h-160l-123 369h-85v110h183l108 -369l151 578h124z" />
    <glyph glyph-name="infinity" unicode="&#x221e;" horiz-adv-x="521" 
d="M364 180q-71 0 -110 66q-18 -32 -44 -49t-57 -17q-26 0 -53 14t-45.5 48t-18.5 77q0 29 11 62t39.5 57t69.5 24q71 0 108 -64q41 64 104 64q37 0 66 -23t40 -56t11 -61q0 -29 -11 -61.5t-40 -56.5t-70 -24zM359 265q21 0 36.5 16.5t15.5 38.5q0 23 -15.5 40t-37.5 17
q-17 0 -35.5 -8t-31.5 -27q20 -49 35 -63t33 -14zM164 265q15 0 32 9.5t31 29.5q-20 46 -34.5 59.5t-31.5 13.5q-21 0 -35.5 -16.5t-14.5 -40.5q0 -23 15 -39t38 -16z" />
    <glyph glyph-name="integral" unicode="&#x222b;" horiz-adv-x="511" 
d="M185 8v499q0 91 47.5 143t128.5 52q90 0 137 -50l-59 -92q-11 11 -30 19t-36 8q-31 0 -48.5 -20.5t-17.5 -58.5v-494q0 -90 -45.5 -143t-128.5 -53q-37 0 -68.5 12t-51.5 31l58 90q25 -21 57 -21q25 0 41 20.5t16 57.5z" />
    <glyph glyph-name="approxequal" unicode="&#x2248;" horiz-adv-x="521" 
d="M45 156v112q56 37 113 37q46 0 98.5 -22.5t73 -26t34.5 -3.5q29 0 60.5 7.5t51.5 22.5v-112q-21 -13 -50.5 -21.5t-59.5 -8.5q-45 0 -98 22.5t-74 26t-35 3.5q-28 0 -59.5 -8t-54.5 -29zM45 354v112q56 37 113 37q46 0 98.5 -22.5t73 -26t34.5 -3.5q29 0 60.5 7.5
t51.5 23.5v-112q-21 -14 -50.5 -22t-59.5 -8q-45 0 -98 22.5t-74 26t-35 3.5q-28 0 -59.5 -8.5t-54.5 -29.5z" />
    <glyph glyph-name="notequal" unicode="&#x2260;" horiz-adv-x="521" 
d="M92 83l45 85h-92v111h151l45 85h-196v111h255l46 86h88l-46 -86h88v-111h-147l-45 -85h192v-111h-251l-45 -85h-88z" />
    <glyph glyph-name="lessequal" unicode="&#x2264;" horiz-adv-x="521" 
d="M476 268v-119l-431 177v106l431 176v-119l-297 -110zM45 0v111h431v-111h-431z" />
    <glyph glyph-name="greaterequal" unicode="&#x2265;" horiz-adv-x="521" 
d="M45 268l298 111l-298 110v119l431 -176v-106l-431 -177v119zM476 0h-431v111h431v-111z" />
    <glyph glyph-name="lozenge" unicode="&#x25ca;" horiz-adv-x="527" 
d="M361 320l-100 214l-101 -214l101 -213zM491 320l-161 -320h-133l-161 320l161 321h133z" />
    <glyph glyph-name="glyph377" horiz-adv-x="1544" 
d="M77 0v641h198v-641h-198zM316 454v187h198v-187h-198zM554 0v641h198v-641h-198zM794 454v187h197v-187h-197zM1032 0v641h197v-641h-197zM1271 454v187h197v-187h-197zM1271 227v186h197v-186h-197z" />
    <glyph glyph-name="i.aalt" horiz-adv-x="265" 
d="M194 479v-479h-122v479h122zM132 544q-29 0 -50 21t-21 50t21 50.5t50 21.5t50.5 -21.5t21.5 -50.5t-21 -50t-51 -21z" />
    <glyph glyph-name="glyph379" horiz-adv-x="400" 
d="M268 688l-41 -166h-89l20 166h110z" />
    <glyph glyph-name="glyph380" horiz-adv-x="400" 
d="M127 538l57 150h96l-32 -150h-121z" />
    </font>
</defs>
</svg>
